<svg width="157" height="47" viewBox="0 0 157 47" fill="none" xmlns="http://www.w3.org/2000/svg">
<path d="M12.2135 25.9995C12.2135 25.9995 9.17913 22.8878 8.74384 21.4118C7.32809 18.7112 10.466 8.635 11.793 6.49878L16.8368 9.92354C13.9737 14.2471 11.6134 21.1818 12.2135 25.9973V25.9995Z" fill="#070707"/>
<path d="M3.89448 17.4588C5.79412 17.4588 7.33242 15.9061 7.33242 13.9935C7.33242 12.081 5.79201 10.5283 3.89448 10.5283C1.99696 10.5283 0.456543 12.0788 0.456543 13.9935C0.456543 15.9083 1.99696 17.4588 3.89448 17.4588Z" fill="#070707"/>
<path d="M14.7344 17.003C14.7344 17.003 15.8543 12.7881 16.896 11.6614C18.4872 9.06089 28.6911 6.67335 31.1887 6.73938L30.8211 12.8584C25.6737 12.5645 18.5442 14.0362 14.7344 17.003Z" fill="#070707"/>
<path d="M20.7753 7.15256C22.675 7.15256 24.2133 5.59991 24.2133 3.68733C24.2133 1.77474 22.675 0.219971 20.7753 0.219971C18.8757 0.219971 17.3374 1.77261 17.3374 3.6852C17.3374 5.59778 18.8778 7.15043 20.7753 7.15043V7.15256Z" fill="#070707"/>
<path d="M29.5682 20.5491C29.5682 20.5491 32.6025 23.6607 33.0378 25.1367C34.4536 27.8373 31.3157 37.9135 29.9887 40.0498L24.9448 36.625C27.808 32.3036 30.1683 25.3667 29.5682 20.5512V20.5491Z" fill="#070707"/>
<path d="M37.8852 36.0223C39.7848 36.0223 41.3231 34.4696 41.3231 32.557C41.3231 30.6444 39.7827 29.0918 37.8852 29.0918C35.9877 29.0918 34.4473 30.6444 34.4473 32.557C34.4473 34.4696 35.9877 36.0223 37.8852 36.0223Z" fill="#070707"/>
<path d="M17.9481 32.2141C17.9481 32.2141 13.7241 33.1619 12.2513 32.753C9.22963 32.5336 2.40657 24.5191 1.31201 22.2551L6.86512 19.7546C8.98874 24.4892 13.5783 30.1801 17.9502 32.2163L17.9481 32.2141Z" fill="#070707"/>
<path d="M3.43794 36.4378C5.33758 36.4378 6.87588 34.8851 6.87588 32.9726C6.87588 31.06 5.33546 29.5073 3.43794 29.5073C1.54042 29.5073 0 31.0578 0 32.9704C0 34.883 1.54042 36.4357 3.43794 36.4357V36.4378Z" fill="#070707"/>
<path d="M23.4255 14.5176C23.4255 14.5176 27.6241 13.4591 29.1075 13.8297C32.1334 13.9702 39.1593 21.8037 40.313 24.0379L34.8254 26.6832C32.5813 22.004 27.846 16.4366 23.4233 14.5176H23.4255Z" fill="#070707"/>
<path d="M37.9082 16.8474C39.8078 16.8474 41.3461 15.2948 41.3461 13.3822C41.3461 11.4696 39.8057 9.91699 37.9082 9.91699C36.0106 9.91699 34.4702 11.4696 34.4702 13.3822C34.4702 15.2948 36.0106 16.8474 37.9082 16.8474Z" fill="#070707"/>
<path d="M27.2121 29.5371C27.2121 29.5371 26.0246 33.7329 24.9681 34.8425C23.3368 37.4153 13.0948 39.641 10.5972 39.5324L11.062 33.4198C16.2052 33.7968 23.3558 32.4422 27.2142 29.5371H27.2121Z" fill="#070707"/>
<path d="M20.9575 46.22C22.8571 46.22 24.3954 44.6674 24.3954 42.7548C24.3954 40.8422 22.855 39.2896 20.9575 39.2896C19.0599 39.2896 17.5195 40.8422 17.5195 42.7548C17.5195 44.6674 19.0599 46.22 20.9575 46.22Z" fill="#070707"/>
<path d="M48.1672 3.7854H46.1323V42.6569H48.1672V3.7854Z" fill="#070707"/>
<path d="M57.3968 13.3525C56.7418 12.9648 56.2325 12.4366 55.8712 11.77C55.5077 11.1034 55.3281 10.3643 55.3281 9.55923C55.3281 8.75416 55.5098 8.01937 55.8712 7.35486C56.2325 6.69036 56.7418 6.16216 57.3968 5.7724C58.0519 5.38051 58.8062 5.18457 59.6599 5.18457C60.5136 5.18457 61.27 5.38051 61.9272 5.7724C62.5865 6.16429 63.0957 6.69249 63.4592 7.35486C63.8205 8.01937 64.0022 8.75416 64.0022 9.55923C64.0022 10.3643 63.8205 11.1034 63.4592 11.77C63.0957 12.4388 62.5865 12.9648 61.9272 13.3525C61.2679 13.7401 60.5136 13.9339 59.6599 13.9339C58.8062 13.9339 58.0519 13.7401 57.3968 13.3525ZM58.2864 7.06734C57.868 7.31653 57.5342 7.66156 57.2869 8.09817C57.0397 8.53692 56.915 9.02252 56.915 9.56137C56.915 10.1002 57.0376 10.5879 57.2869 11.0288C57.5342 11.4697 57.868 11.8169 58.2864 12.066C58.7048 12.3152 59.1612 12.4409 59.6557 12.4409C60.1501 12.4409 60.6192 12.3174 61.0376 12.066C61.456 11.8169 61.7877 11.4718 62.0307 11.0288C62.2737 10.5879 62.3963 10.0981 62.3963 9.56137C62.3963 9.02465 62.2737 8.53692 62.0307 8.09817C61.7877 7.65943 61.456 7.31653 61.0376 7.06734C60.6192 6.81815 60.1586 6.69249 59.6557 6.69249C59.1612 6.69249 58.7048 6.81815 58.2864 7.06734Z" fill="#070707"/>
<path d="M64.9681 7.06104C64.9681 6.64785 65.1054 6.2581 65.378 5.89177C65.6506 5.52757 66.0098 5.29541 66.4515 5.19531L66.5085 5.31032C66.5318 5.36357 66.5423 5.41468 66.5423 5.45941C66.5423 5.57442 66.4705 5.67452 66.3247 5.75759C66.0584 5.92584 65.9021 6.16438 65.8556 6.47108C66.0922 6.46256 66.2951 6.54349 66.4662 6.71388C66.6374 6.88214 66.724 7.08447 66.724 7.32514C66.724 7.56581 66.6437 7.75323 66.4832 7.91936C66.3247 8.08549 66.1282 8.16642 65.8999 8.16642C65.6929 8.16642 65.5069 8.10253 65.34 7.97048C65.1731 7.84056 65.0611 7.6723 65.0082 7.46358C64.9787 7.34644 64.9639 7.21226 64.9639 7.05891L64.9681 7.06104Z" fill="#070707"/>
<path d="M74.6671 5.54025L69.9719 12.345H73.7521C73.9951 12.345 74.1811 12.4089 74.3121 12.541C74.441 12.6709 74.5065 12.8583 74.5065 13.1054V13.7742H67.1953V13.5889L71.9011 6.77342H68.3026C68.0595 6.77342 67.8736 6.70952 67.7426 6.57748C67.6137 6.44756 67.5482 6.26013 67.5482 6.01307V5.34644H74.665V5.54238L74.6671 5.54025Z" fill="#070707"/>
<path d="M81.6334 8.83935C81.382 9.17373 81.0544 9.34838 80.6508 9.36329V9.37394C80.9319 9.38885 81.2045 9.4783 81.4686 9.63804C81.7327 9.79777 81.944 10.0299 82.1089 10.3302C82.2737 10.6284 82.354 10.9734 82.354 11.3675C82.354 12.2279 82.0941 12.8434 81.5721 13.214C81.0502 13.5867 80.3825 13.772 79.5669 13.772H75.8901V5.34644H79.4422C81.1559 5.34644 82.0117 6.11317 82.0117 7.64878C82.0117 8.11095 81.8849 8.5071 81.6334 8.84148V8.83935ZM79.2816 8.76694C79.6767 8.76694 79.9641 8.67961 80.1437 8.50284C80.3212 8.32606 80.4121 8.0641 80.4121 7.72119C80.4121 7.40598 80.3128 7.16957 80.1162 7.01196C79.9176 6.85435 79.645 6.77555 79.2943 6.77555H77.4897V8.76694H79.2816ZM80.4121 12.0809C80.6403 11.9042 80.7544 11.6358 80.7544 11.2737C80.7544 10.9117 80.6382 10.6433 80.4057 10.4665C80.1733 10.2898 79.8437 10.2024 79.4189 10.2024H77.4876V12.345H79.4506C79.8627 12.345 80.1839 12.2577 80.4121 12.0809Z" fill="#070707"/>
<path d="M83.8271 5.34644H89.9719V6.05993C89.9719 6.28995 89.9085 6.46672 89.7775 6.58812C89.6486 6.71165 89.4627 6.77342 89.2176 6.77342H85.4141V8.87982H89.002V9.54645C89.002 9.79138 88.9386 9.97881 88.8076 10.1109C88.6787 10.2408 88.4928 10.3068 88.2477 10.3068H85.4162V12.345H89.207C89.4267 12.345 89.6106 12.4175 89.7564 12.5644C89.9001 12.7114 89.974 12.8945 89.974 13.1182V13.7742H83.8293V5.34644H83.8271Z" fill="#070707"/>
<path d="M97.2828 13.7742C97.0926 13.7742 96.9236 13.7401 96.7757 13.6762C96.6277 13.6123 96.4883 13.5058 96.3594 13.3588L93.2299 9.94047V13.0138C93.2299 13.2587 93.1644 13.4462 93.0356 13.5782C92.9067 13.7081 92.7207 13.7742 92.4756 13.7742H91.6304V5.34644H92.4756C92.7186 5.34644 92.9045 5.41033 93.0356 5.54238C93.1644 5.6723 93.2299 5.85972 93.2299 6.10678V9.62952L96.2009 5.79583C96.3235 5.64248 96.4587 5.5296 96.6066 5.45506C96.7545 5.38264 96.9278 5.34644 97.1264 5.34644H98.521L95.0831 9.71045L98.8528 13.7742H97.2849H97.2828Z" fill="#070707"/>
<path d="M101.395 5.54025C101.524 5.67017 101.589 5.85759 101.589 6.10465V13.772H100.744C100.501 13.772 100.315 13.7081 100.184 13.5761C100.055 13.4462 99.9897 13.2587 99.9897 13.0117V5.34644H100.835C101.078 5.34644 101.264 5.41246 101.395 5.54238V5.54025Z" fill="#070707"/>
<path d="M104.172 11.7019C104.309 11.7019 104.465 11.7466 104.641 11.8403C104.983 12.0171 105.34 12.164 105.714 12.2791C106.088 12.3941 106.437 12.4516 106.766 12.4516C107.322 12.4516 107.728 12.3579 107.984 12.1704C108.239 11.983 108.366 11.7423 108.366 11.4506C108.366 11.2056 108.281 11.0076 108.115 10.8563C107.948 10.7072 107.741 10.5944 107.493 10.5156C107.246 10.4389 106.904 10.358 106.471 10.2728C105.862 10.1492 105.357 10.0257 104.958 9.89791C104.558 9.77225 104.18 9.53371 103.821 9.18442C103.464 8.83513 103.284 8.34953 103.284 7.72762C103.284 6.83096 103.599 6.18775 104.233 5.798C104.865 5.41037 105.608 5.21655 106.46 5.21655C107.115 5.21655 107.679 5.30601 108.157 5.48704C108.634 5.66808 109.108 5.93643 109.579 6.29851L109.122 6.93106C108.964 7.16108 108.767 7.2761 108.539 7.2761C108.402 7.2761 108.25 7.2335 108.083 7.15044C107.481 6.85865 106.883 6.71169 106.289 6.71169C105.915 6.71169 105.587 6.77985 105.306 6.91402C105.025 7.0482 104.884 7.26545 104.884 7.56362C104.884 7.80216 104.977 7.99598 105.163 8.14506C105.349 8.29415 105.568 8.40703 105.82 8.48584C106.071 8.56251 106.405 8.64344 106.823 8.72864C106.876 8.74355 106.929 8.75633 106.982 8.76271C107.035 8.77123 107.085 8.77762 107.13 8.78614C107.654 8.88624 108.11 9.00552 108.495 9.14395C108.879 9.28239 109.22 9.52732 109.518 9.88087C109.813 10.2344 109.963 10.7243 109.963 11.3547C109.963 12.1981 109.678 12.8392 109.108 13.2779C108.535 13.7167 107.764 13.9339 106.79 13.9339C106.006 13.9339 105.351 13.8253 104.825 13.6059C104.3 13.3866 103.762 13.0714 103.214 12.656L103.614 12.0448C103.766 11.8126 103.952 11.6976 104.174 11.6976L104.172 11.7019Z" fill="#070707"/>
<path d="M116.658 6.013C116.658 6.25793 116.592 6.44536 116.463 6.57741C116.332 6.70733 116.146 6.77335 115.903 6.77335H114.27V13.0137C114.27 13.2587 114.204 13.4461 114.075 13.5781C113.947 13.7081 113.761 13.7741 113.516 13.7741H112.67V6.77122H110.272V6.10459C110.272 5.85966 110.335 5.67223 110.466 5.54018C110.595 5.41026 110.781 5.34424 111.026 5.34424H116.658V6.01087V6.013Z" fill="#070707"/>
<path d="M119.341 13.3525C118.688 12.9648 118.177 12.4366 117.818 11.77C117.454 11.1034 117.277 10.3643 117.277 9.55923C117.277 8.75416 117.459 8.01937 117.818 7.35486C118.179 6.69036 118.688 6.16216 119.341 5.7724C119.996 5.38051 120.751 5.18457 121.604 5.18457C122.458 5.18457 123.212 5.38051 123.872 5.7724C124.529 6.16429 125.04 6.69249 125.404 7.35486C125.765 8.01937 125.945 8.75416 125.945 9.55923C125.945 10.3643 125.763 11.1034 125.404 11.77C125.04 12.4388 124.531 12.9648 123.872 13.3525C123.212 13.7401 122.458 13.9339 121.604 13.9339C120.751 13.9339 119.996 13.7401 119.341 13.3525ZM120.231 7.06734C119.813 7.31653 119.479 7.66156 119.229 8.09817C118.982 8.53692 118.86 9.02252 118.86 9.56137C118.86 10.1002 118.982 10.5879 119.229 11.0288C119.477 11.4697 119.81 11.8169 120.231 12.066C120.649 12.3152 121.106 12.4409 121.6 12.4409C122.095 12.4409 122.564 12.3174 122.982 12.066C123.4 11.8169 123.732 11.4718 123.975 11.0288C124.22 10.5879 124.341 10.0981 124.341 9.56137C124.341 9.02465 124.218 8.53692 123.975 8.09817C123.732 7.65943 123.4 7.31653 122.982 7.06734C122.564 6.81815 122.103 6.69249 121.6 6.69249C121.106 6.69249 120.649 6.81815 120.231 7.06734Z" fill="#070707"/>
<path d="M134.454 13.7742L128.947 8.76694V13.0159C128.947 13.2609 128.881 13.4483 128.753 13.5803C128.624 13.7103 128.438 13.7763 128.193 13.7763H127.358V5.34644H127.531L133.025 10.4474V6.10678C133.025 5.86185 133.091 5.67443 133.22 5.54238C133.351 5.41246 133.536 5.34644 133.779 5.34644H134.625V13.7742H134.454Z" fill="#070707"/>
<path d="M61.3313 19.2988C61.4729 19.2073 61.6483 19.1604 61.8617 19.1604H63.0154L59.0408 27.5881H58.9499L54.9858 19.1604H56.1269C56.3403 19.1604 56.5178 19.2051 56.6573 19.2988C56.7988 19.3904 56.9151 19.5331 57.0059 19.7248L58.9943 24.0547L60.9806 19.7248C61.0714 19.5331 61.1877 19.3904 61.3292 19.2988H61.3313Z" fill="#070707"/>
<path d="M65.0379 27.1708C64.3829 26.7832 63.8736 26.255 63.5123 25.5884C63.1488 24.9217 62.9692 24.1827 62.9692 23.3776C62.9692 22.5725 63.151 21.8377 63.5123 21.1732C63.8736 20.5087 64.3829 19.9805 65.0379 19.5908C65.693 19.1989 66.4473 19.0029 67.301 19.0029C68.1547 19.0029 68.9112 19.1989 69.5683 19.5908C70.2276 19.9826 70.7368 20.5108 71.1003 21.1732C71.4616 21.8377 71.6433 22.5725 71.6433 23.3776C71.6433 24.1827 71.4616 24.9217 71.1003 25.5884C70.7368 26.2571 70.2276 26.7832 69.5683 27.1708C68.909 27.5584 68.1547 27.7523 67.301 27.7523C66.4473 27.7523 65.693 27.5584 65.0379 27.1708ZM65.9296 20.8836C65.5112 21.1328 65.1774 21.4778 64.9302 21.9144C64.6829 22.3531 64.5583 22.8387 64.5583 23.3776C64.5583 23.9164 64.6808 24.4042 64.9302 24.845C65.1774 25.2859 65.5112 25.6331 65.9296 25.8823C66.348 26.1315 66.8044 26.2571 67.2989 26.2571C67.7933 26.2571 68.2624 26.1336 68.6808 25.8823C69.0992 25.6331 69.431 25.288 69.674 24.845C69.917 24.4042 70.0395 23.9143 70.0395 23.3776C70.0395 22.8409 69.917 22.3531 69.674 21.9144C69.431 21.4757 69.0992 21.1328 68.6808 20.8836C68.2624 20.6344 67.8018 20.5087 67.2989 20.5087C66.796 20.5087 66.348 20.6322 65.9296 20.8836Z" fill="#070707"/>
<path d="M78.3224 26.1612C78.5654 26.1612 78.7513 26.2272 78.8823 26.3572C79.0112 26.4871 79.0767 26.6745 79.0767 26.9216V27.5903H73.0566V19.1626H73.9019C74.1449 19.1626 74.3308 19.2265 74.4618 19.3585C74.5907 19.4885 74.6562 19.6759 74.6562 19.9229V26.1633H78.3245L78.3224 26.1612Z" fill="#070707"/>
<path d="M81.4285 27.1708C80.7735 26.7832 80.2643 26.255 79.9029 25.5884C79.5395 24.9217 79.3599 24.1827 79.3599 23.3776C79.3599 22.5725 79.5416 21.8377 79.9029 21.1732C80.2643 20.5087 80.7735 19.9805 81.4285 19.5908C82.0836 19.1989 82.838 19.0029 83.6916 19.0029C84.5453 19.0029 85.3018 19.1989 85.9589 19.5908C86.6161 19.9826 87.1274 20.5108 87.4909 21.1732C87.8522 21.8377 88.034 22.5725 88.034 23.3776C88.034 24.1827 87.8522 24.9217 87.4909 25.5884C87.1274 26.2571 86.6182 26.7832 85.9589 27.1708C85.2997 27.5584 84.5453 27.7523 83.6916 27.7523C82.838 27.7523 82.0836 27.5584 81.4285 27.1708ZM82.3202 20.8836C81.9019 21.1328 81.568 21.4778 81.3208 21.9144C81.0736 22.3531 80.9489 22.8387 80.9489 23.3776C80.9489 23.9164 81.0714 24.4042 81.3208 24.845C81.568 25.2859 81.9019 25.6331 82.3202 25.8823C82.7386 26.1315 83.1951 26.2571 83.6895 26.2571C84.184 26.2571 84.6531 26.1336 85.0715 25.8823C85.4898 25.6331 85.8216 25.288 86.0646 24.845C86.3076 24.4042 86.4301 23.9143 86.4301 23.3776C86.4301 22.8409 86.3076 22.3531 86.0646 21.9144C85.8216 21.4757 85.4898 21.1328 85.0715 20.8836C84.6531 20.6344 84.1924 20.5087 83.6895 20.5087C83.1866 20.5087 82.7386 20.6322 82.3202 20.8836Z" fill="#070707"/>
<path d="M96.5414 27.5904L91.0348 22.5832V26.8322C91.0348 27.0771 90.9693 27.2645 90.8404 27.3966C90.7115 27.5265 90.5256 27.5925 90.2805 27.5925H89.4458V19.1648H89.617L95.1109 24.2657V19.9251C95.1109 19.6802 95.1743 19.4928 95.3053 19.3607C95.4342 19.2308 95.6201 19.1648 95.8653 19.1648H96.7105V27.5925H96.5393L96.5414 27.5904Z" fill="#070707"/>
<path d="M104.355 19.8292C104.355 20.0742 104.29 20.2616 104.161 20.3936C104.032 20.5236 103.846 20.5896 103.601 20.5896H101.968V26.83C101.968 27.0749 101.902 27.2623 101.773 27.3944C101.644 27.5243 101.458 27.5903 101.213 27.5903H100.368V20.5917H97.9697V19.9229C97.9697 19.678 98.0331 19.4906 98.1641 19.3585C98.293 19.2286 98.479 19.1626 98.7241 19.1626H104.355V19.8314V19.8292Z" fill="#070707"/>
<path d="M111.483 19.1626H112.751L109.564 24.402V26.8321C109.564 27.077 109.499 27.2645 109.37 27.3965C109.241 27.5264 109.055 27.5925 108.81 27.5925H107.965V24.4041L104.801 19.1647H106.069C106.473 19.1647 106.773 19.3372 106.971 19.6823L108.765 22.745L110.58 19.6823C110.775 19.3351 111.075 19.1647 111.481 19.1647L111.483 19.1626Z" fill="#070707"/>
<path d="M115.071 27.1708C114.416 26.7832 113.906 26.255 113.545 25.5884C113.182 24.9217 113.002 24.1827 113.002 23.3776C113.002 22.5725 113.184 21.8377 113.545 21.1732C113.906 20.5087 114.416 19.9805 115.071 19.5908C115.724 19.1989 116.48 19.0029 117.332 19.0029C118.183 19.0029 118.942 19.1989 119.599 19.5908C120.258 19.9826 120.767 20.5108 121.131 21.1732C121.492 21.8377 121.672 22.5725 121.672 23.3776C121.672 24.1827 121.49 24.9217 121.131 25.5884C120.767 26.2571 120.258 26.7832 119.599 27.1708C118.94 27.5584 118.185 27.7523 117.332 27.7523C116.478 27.7523 115.724 27.5584 115.071 27.1708ZM115.96 20.8836C115.542 21.1328 115.208 21.4778 114.961 21.9144C114.714 22.3531 114.589 22.8387 114.589 23.3776C114.589 23.9164 114.711 24.4042 114.961 24.845C115.208 25.2859 115.542 25.6331 115.96 25.8823C116.379 26.1315 116.835 26.2571 117.329 26.2571C117.824 26.2571 118.293 26.1336 118.711 25.8823C119.13 25.6331 119.462 25.288 119.705 24.845C119.948 24.4042 120.07 23.9143 120.07 23.3776C120.07 22.8409 119.948 22.3531 119.705 21.9144C119.459 21.4757 119.13 21.1328 118.711 20.8836C118.293 20.6344 117.832 20.5087 117.329 20.5087C116.827 20.5087 116.379 20.6322 115.96 20.8836Z" fill="#070707"/>
<path d="M124.674 26.83C124.674 27.0749 124.609 27.2623 124.48 27.3944C124.349 27.5243 124.163 27.5903 123.92 27.5903H123.085V19.1626H126.878C127.443 19.1626 127.941 19.2861 128.374 19.5311C128.81 19.776 129.148 20.121 129.393 20.5619C129.638 21.0028 129.758 21.5033 129.758 22.0634C129.758 22.7066 129.6 23.2817 129.279 23.7843C128.958 24.287 128.539 24.6107 128.024 24.7577L130.113 27.5903H128.778C128.579 27.5903 128.408 27.552 128.265 27.4753C128.119 27.3986 127.986 27.2794 127.863 27.1175L126.263 24.9067H124.677V26.8321L124.674 26.83ZM126.502 23.5032C127.119 23.5032 127.55 23.3669 127.798 23.0943C128.045 22.8216 128.169 22.4745 128.169 22.0528C128.169 21.6311 128.032 21.2626 127.76 20.9921C127.485 20.7238 127.066 20.5896 126.504 20.5896H124.677V23.5032H126.502Z" fill="#070707"/>
<path d="M136.577 26.1612C136.82 26.1612 137.006 26.2272 137.137 26.3572C137.268 26.4871 137.332 26.6745 137.332 26.9216V27.5903H131.312V19.1626H132.157C132.4 19.1626 132.586 19.2265 132.717 19.3585C132.848 19.4885 132.911 19.6759 132.911 19.9229V26.1633H136.579L136.577 26.1612Z" fill="#070707"/>
<path d="M139.149 27.4561C139.003 27.5434 138.826 27.5881 138.612 27.5881H137.492L141.765 19.1604H141.923L146.196 27.5881H145.076C144.658 27.5881 144.36 27.4028 144.186 27.0344L143.81 26.2634H139.871L139.506 27.0344C139.415 27.2282 139.297 27.3666 139.153 27.4539L139.149 27.4561ZM140.643 24.8619H143.031L141.843 22.3168L140.643 24.8619Z" fill="#070707"/>
<path d="M148.652 26.83C148.652 27.0749 148.586 27.2623 148.457 27.3944C148.326 27.5243 148.14 27.5903 147.897 27.5903H147.062V19.1626H150.853C151.418 19.1626 151.916 19.2861 152.349 19.5311C152.783 19.776 153.123 20.121 153.366 20.5619C153.611 21.0028 153.731 21.5033 153.731 22.0634C153.731 22.7066 153.573 23.2817 153.252 23.7843C152.93 24.287 152.512 24.6107 151.996 24.7577L154.086 27.5903H152.751C152.552 27.5903 152.381 27.552 152.235 27.4753C152.089 27.3986 151.956 27.2794 151.834 27.1175L150.234 24.9067H148.647V26.8321L148.652 26.83ZM150.477 23.5032C151.094 23.5032 151.525 23.3669 151.775 23.0943C152.022 22.8216 152.147 22.4745 152.147 22.0528C152.147 21.6311 152.009 21.2626 151.737 20.9921C151.462 20.7238 151.044 20.5896 150.481 20.5896H148.654V23.5032H150.479H150.477Z" fill="#070707"/>
<path d="M156.808 19.3585C156.936 19.4885 157 19.6759 157 19.9229V27.5903H156.155C155.909 27.5903 155.724 27.5264 155.595 27.3944C155.466 27.2645 155.402 27.077 155.402 26.83V19.1626H156.248C156.491 19.1626 156.679 19.2265 156.808 19.3585Z" fill="#070707"/>
<path d="M56.5624 41.2725C56.4166 41.3598 56.2391 41.4045 56.0257 41.4045H54.9058L59.1762 32.9768H59.3347L63.6052 41.4045H62.4853C62.0669 41.4045 61.769 41.2192 61.5957 40.8508L61.2196 40.0798H57.2829L56.9174 40.8508C56.8244 41.0425 56.7082 41.183 56.5624 41.2704V41.2725ZM58.0584 38.6762H60.4462L59.2587 36.1311L58.0584 38.6762Z" fill="#070707"/>
<path d="M64.6955 39.332C64.8328 39.332 64.9892 39.3767 65.1646 39.4704C65.5069 39.6472 65.864 39.7942 66.238 39.9092C66.612 40.0242 66.9607 40.0817 67.2903 40.0817C67.8461 40.0817 68.2518 39.988 68.5074 39.8006C68.7631 39.6131 68.8899 39.3725 68.8899 39.0807C68.8899 38.8358 68.8054 38.6377 68.6385 38.4865C68.4715 38.3374 68.2644 38.2245 68.0172 38.1457C67.77 38.069 67.4277 37.9881 66.9945 37.9029C66.3859 37.7794 65.8809 37.6558 65.4816 37.528C65.0822 37.4002 64.7039 37.1638 64.3447 36.8145C63.9876 36.4653 63.808 35.9797 63.808 35.3577C63.808 34.4611 64.1229 33.8179 64.7568 33.4281C65.3886 33.0405 66.1324 32.8467 66.9839 32.8467C67.639 32.8467 68.2032 32.9361 68.6807 33.1172C69.1562 33.2982 69.6316 33.5666 70.1028 33.9286L69.6464 34.5612C69.4879 34.7912 69.2914 34.9062 69.0632 34.9062C68.9258 34.9062 68.7737 34.8636 68.6068 34.7806C68.0045 34.4888 67.4065 34.3418 66.8128 34.3418C66.4388 34.3418 66.1134 34.41 65.8302 34.5442C65.5492 34.6783 65.4076 34.8956 65.4076 35.1937C65.4076 35.4323 65.5006 35.6261 65.6865 35.7752C65.8725 35.9243 66.0922 36.0372 66.3437 36.116C66.593 36.1926 66.929 36.2736 67.3474 36.3588C67.4002 36.3737 67.453 36.3865 67.5059 36.3928C67.5587 36.4014 67.6094 36.4077 67.6538 36.4163C68.1778 36.5164 68.6342 36.6356 69.0188 36.7741C69.4034 36.9125 69.7436 37.1574 70.0415 37.511C70.3373 37.8646 70.4874 38.3544 70.4874 38.9848C70.4874 39.8283 70.2021 40.4693 69.6316 40.9081C69.059 41.3468 68.2877 41.5641 67.3136 41.5641C66.5296 41.5641 65.8746 41.4554 65.3484 41.2361C64.8244 41.0167 64.2856 40.7015 63.7383 40.2862L64.1376 39.6749C64.2898 39.4428 64.4757 39.3277 64.6976 39.3277L64.6955 39.332Z" fill="#070707"/>
<path d="M72.4611 39.332C72.5985 39.332 72.7548 39.3767 72.9302 39.4704C73.2725 39.6472 73.6296 39.7942 74.0036 39.9092C74.3777 40.0242 74.7263 40.0817 75.056 40.0817C75.6117 40.0817 76.0174 39.988 76.2731 39.8006C76.5287 39.6131 76.6555 39.3725 76.6555 39.0807C76.6555 38.8358 76.571 38.6377 76.4041 38.4865C76.2371 38.3374 76.0301 38.2245 75.7828 38.1457C75.5356 38.069 75.1933 37.9881 74.7601 37.9029C74.1516 37.7794 73.6465 37.6558 73.2472 37.528C72.8478 37.4002 72.4696 37.1638 72.1104 36.8145C71.7532 36.4653 71.5736 35.9797 71.5736 35.3577C71.5736 34.4611 71.8885 33.8179 72.5224 33.4281C73.1542 33.0405 73.898 32.8467 74.7496 32.8467C75.4046 32.8467 75.9688 32.9361 76.4463 33.1172C76.9239 33.2982 77.3972 33.5666 77.8684 33.9286L77.412 34.5612C77.2535 34.7912 77.057 34.9062 76.8288 34.9062C76.6915 34.9062 76.5393 34.8636 76.3724 34.7806C75.7702 34.4888 75.1722 34.3418 74.5784 34.3418C74.2044 34.3418 73.879 34.41 73.5958 34.5442C73.3148 34.6783 73.1732 34.8956 73.1732 35.1937C73.1732 35.4323 73.2662 35.6261 73.4521 35.7752C73.6381 35.9243 73.8578 36.0372 74.1093 36.116C74.3586 36.1926 74.6946 36.2736 75.113 36.3588C75.1658 36.3737 75.2187 36.3865 75.2715 36.3928C75.3243 36.4014 75.375 36.4077 75.4194 36.4163C75.9434 36.5164 76.3999 36.6356 76.7844 36.7741C77.169 36.9125 77.5092 37.1574 77.8071 37.511C78.103 37.8646 78.253 38.3544 78.253 38.9848C78.253 39.8283 77.9677 40.4693 77.3972 40.9081C76.8246 41.3468 76.0533 41.5641 75.0792 41.5641C74.2952 41.5641 73.6402 41.4554 73.1141 41.2361C72.59 41.0167 72.0512 40.7015 71.5039 40.2862L71.9033 39.6749C72.0554 39.4428 72.2414 39.3277 72.4632 39.3277L72.4611 39.332Z" fill="#070707"/>
<path d="M81.2342 40.9848C80.5792 40.5972 80.0699 40.069 79.7086 39.4023C79.3451 38.7336 79.1655 37.9966 79.1655 37.1916C79.1655 36.3865 79.3473 35.6517 79.7086 34.9872C80.0699 34.3248 80.5792 33.7945 81.2342 33.4047C81.8893 33.0128 82.6436 32.8169 83.4973 32.8169C84.351 32.8169 85.1074 33.0128 85.7646 33.4047C86.4239 33.7966 86.9331 34.3248 87.2966 34.9872C87.6579 35.6517 87.8396 36.3865 87.8396 37.1916C87.8396 37.9966 87.6579 38.7357 87.2966 39.4023C86.9352 40.0711 86.4239 40.5972 85.7646 40.9848C85.1053 41.3724 84.351 41.5662 83.4973 41.5662C82.6436 41.5662 81.8914 41.3724 81.2342 40.9848ZM82.1259 34.6975C81.7075 34.9467 81.3737 35.2896 81.1264 35.7284C80.8792 36.1671 80.7545 36.6527 80.7545 37.1916C80.7545 37.7304 80.8771 38.2181 81.1264 38.659C81.3737 39.0999 81.7075 39.447 82.1259 39.6962C82.5443 39.9454 83.0007 40.0711 83.4952 40.0711C83.9896 40.0711 84.4587 39.9476 84.8771 39.6962C85.2955 39.447 85.6273 39.102 85.8703 38.659C86.1133 38.216 86.2358 37.7283 86.2358 37.1916C86.2358 36.6548 86.1133 36.1671 85.8703 35.7284C85.6273 35.2896 85.2955 34.9467 84.8771 34.6975C84.4587 34.4483 83.9981 34.3227 83.4952 34.3227C83.0007 34.3227 82.5443 34.4483 82.1259 34.6975Z" fill="#070707"/>
<path d="M94.7133 33.6454C94.7133 33.8903 94.6478 34.0778 94.5189 34.2098C94.39 34.3397 94.204 34.4057 93.9589 34.4057H92.3255V40.6461C92.3255 40.8911 92.26 41.0785 92.1311 41.2105C92.0022 41.3405 91.8163 41.4065 91.5712 41.4065H90.7259V34.4057H88.3276V33.7391C88.3276 33.4942 88.391 33.3068 88.522 33.1747C88.6509 33.0448 88.8369 32.9788 89.082 32.9788H94.7133V33.6454Z" fill="#070707"/>
<path d="M96.2668 39.332C96.4041 39.332 96.5605 39.3767 96.7359 39.4704C97.0782 39.6472 97.4353 39.7942 97.8093 39.9092C98.1833 40.0242 98.532 40.0817 98.8616 40.0817C99.4173 40.0817 99.8231 39.988 100.079 39.8006C100.334 39.6131 100.461 39.3725 100.461 39.0807C100.461 38.8358 100.377 38.6377 100.21 38.4865C100.043 38.3374 99.8357 38.2245 99.5885 38.1457C99.3413 38.069 98.999 37.9881 98.5658 37.9029C97.9572 37.7794 97.4522 37.6558 97.0528 37.528C96.6535 37.4024 96.2752 37.1638 95.916 36.8145C95.5589 36.4653 95.3793 35.9797 95.3793 35.3577C95.3793 34.4611 95.6941 33.8179 96.3281 33.4281C96.9599 33.0405 97.7037 32.8467 98.5552 32.8467C99.2103 32.8467 99.7745 32.9361 100.252 33.1172C100.727 33.2982 101.203 33.5666 101.674 33.9286L101.218 34.5612C101.059 34.7912 100.863 34.9062 100.634 34.9062C100.497 34.9062 100.345 34.8636 100.178 34.7806C99.5758 34.4888 98.9778 34.3418 98.3841 34.3418C98.0101 34.3418 97.6825 34.41 97.4015 34.5442C97.1205 34.6783 96.9789 34.8956 96.9789 35.1937C96.9789 35.4323 97.0719 35.6261 97.2578 35.7752C97.4438 35.9243 97.6635 36.0372 97.915 36.116C98.1643 36.1926 98.5003 36.2736 98.9187 36.3588C98.9715 36.3737 99.0243 36.3865 99.0772 36.3928C99.13 36.4014 99.1807 36.4077 99.2251 36.4163C99.7491 36.5164 100.206 36.6356 100.59 36.7741C100.975 36.9125 101.315 37.1574 101.613 37.511C101.909 37.8646 102.059 38.3544 102.059 38.9848C102.059 39.8283 101.773 40.4693 101.203 40.9081C100.63 41.3468 99.859 41.5641 98.8849 41.5641C98.1009 41.5641 97.4459 41.4554 96.9197 41.2361C96.3957 41.0167 95.8569 40.7015 95.3096 40.2862L95.7089 39.6749C95.8611 39.4428 96.047 39.3277 96.2689 39.3277L96.2668 39.332Z" fill="#070707"/>
<path d="M104.913 33.1747C105.042 33.3046 105.107 33.492 105.107 33.7391V41.4065H104.262C104.019 41.4065 103.833 41.3426 103.702 41.2105C103.573 41.0806 103.508 40.8932 103.508 40.6461V32.9788H104.353C104.596 32.9788 104.782 33.0427 104.913 33.1747Z" fill="#070707"/>
<path d="M107.861 41.2725C107.715 41.3598 107.537 41.4045 107.324 41.4045H106.204L110.475 32.9768H110.633L114.906 41.4045H113.786C113.367 41.4045 113.069 41.2192 112.896 40.8508L112.52 40.0798H108.579L108.214 40.8508C108.125 41.0425 108.007 41.183 107.863 41.2704L107.861 41.2725ZM109.359 38.6762H111.747L110.559 36.1311L109.359 38.6762Z" fill="#070707"/>
<path d="M120.277 33.6454C120.277 33.8903 120.212 34.0778 120.083 34.2098C119.952 34.3397 119.766 34.4057 119.523 34.4057H117.887V40.6461C117.887 40.8911 117.822 41.0785 117.695 41.2105C117.564 41.3405 117.378 41.4065 117.135 41.4065H116.29V34.4057H113.892V33.7391C113.892 33.4942 113.955 33.3068 114.086 33.1747C114.215 33.0448 114.401 32.9788 114.646 32.9788H120.277V33.6454Z" fill="#070707"/>
<path d="M121.83 39.332C121.968 39.332 122.124 39.3767 122.3 39.4704C122.642 39.6472 122.999 39.7942 123.373 39.9092C123.747 40.0242 124.096 40.0817 124.423 40.0817C124.979 40.0817 125.385 39.988 125.64 39.8006C125.894 39.6131 126.023 39.3725 126.023 39.0807C126.023 38.8358 125.938 38.6377 125.771 38.4865C125.604 38.3374 125.395 38.2245 125.15 38.1457C124.903 38.069 124.56 37.9881 124.127 37.9029C123.519 37.7794 123.014 37.6558 122.614 37.528C122.213 37.4024 121.837 37.1638 121.478 36.8145C121.12 36.4653 120.941 35.9797 120.941 35.3577C120.941 34.4611 121.258 33.8179 121.89 33.4281C122.524 33.0405 123.265 32.8467 124.119 32.8467C124.774 32.8467 125.338 32.9361 125.816 33.1172C126.293 33.2982 126.764 33.5666 127.238 33.9286L126.781 34.5612C126.623 34.7912 126.426 34.9062 126.198 34.9062C126.061 34.9062 125.909 34.8636 125.744 34.7806C125.142 34.4888 124.544 34.3418 123.95 34.3418C123.576 34.3418 123.248 34.41 122.967 34.5442C122.686 34.6783 122.545 34.8956 122.545 35.1937C122.545 35.4323 122.638 35.6261 122.824 35.7752C123.01 35.9243 123.229 36.0372 123.479 36.116C123.73 36.1926 124.066 36.2736 124.484 36.3588C124.537 36.3737 124.59 36.3865 124.645 36.3928C124.698 36.4014 124.749 36.4077 124.793 36.4163C125.317 36.5164 125.771 36.6356 126.158 36.7741C126.543 36.9125 126.883 37.1574 127.181 37.511C127.477 37.8646 127.627 38.3544 127.627 38.9848C127.627 39.8283 127.341 40.4693 126.771 40.9081C126.198 41.3468 125.427 41.5641 124.453 41.5641C123.669 41.5641 123.014 41.4554 122.488 41.2361C121.964 41.0167 121.425 40.7015 120.877 40.2862L121.279 39.6749C121.431 39.4428 121.617 39.3277 121.839 39.3277L121.83 39.332Z" fill="#070707"/>
<path d="M130.477 33.1747C130.608 33.3046 130.671 33.492 130.671 33.7391V41.4065H129.826C129.581 41.4065 129.395 41.3426 129.266 41.2105C129.135 41.0806 129.072 40.8932 129.072 40.6461V32.9788H129.917C130.16 32.9788 130.346 33.0427 130.477 33.1747Z" fill="#070707"/>
<path d="M138.291 32.9768H139.559L136.37 38.2162V40.6463C136.37 40.8912 136.305 41.0787 136.176 41.2107C136.047 41.3406 135.861 41.4067 135.616 41.4067H134.771V38.2183L131.607 32.9789H132.875C133.279 32.9789 133.581 33.1515 133.78 33.4965L135.574 36.5592L137.389 33.4965C137.583 33.1515 137.885 32.9789 138.289 32.9789L138.291 32.9768Z" fill="#070707"/>
<path d="M139.912 41.2725C139.766 41.3598 139.588 41.4045 139.375 41.4045H138.255L142.527 32.9768H142.688L146.959 41.4045H145.839C145.42 41.4045 145.122 41.2192 144.947 40.8508L144.571 40.0798H140.634L140.269 40.8508C140.178 41.0425 140.059 41.183 139.914 41.2704L139.912 41.2725ZM141.408 38.6762H143.795L142.608 36.1311L141.408 38.6762Z" fill="#070707"/>
<path d="M148.045 39.332C148.182 39.332 148.339 39.3767 148.514 39.4704C148.856 39.6472 149.216 39.7942 149.587 39.9092C149.961 40.0242 150.31 40.0817 150.638 40.0817C151.196 40.0817 151.599 39.988 151.855 39.8006C152.108 39.6131 152.237 39.3725 152.237 39.0807C152.237 38.8358 152.153 38.6377 151.986 38.4865C151.819 38.3374 151.61 38.2245 151.365 38.1457C151.119 38.0669 150.775 37.9881 150.344 37.9029C149.735 37.7794 149.228 37.6558 148.829 37.528C148.427 37.4024 148.051 37.1638 147.692 36.8145C147.335 36.4653 147.155 35.9797 147.155 35.3577C147.155 34.4611 147.472 33.8179 148.104 33.4281C148.738 33.0405 149.48 32.8467 150.333 32.8467C150.988 32.8467 151.553 32.9361 152.03 33.1172C152.508 33.2982 152.981 33.5666 153.452 33.9286L152.996 34.5612C152.837 34.7912 152.641 34.9062 152.415 34.9062C152.277 34.9062 152.125 34.8636 151.958 34.7806C151.356 34.4888 150.758 34.3418 150.164 34.3418C149.79 34.3418 149.463 34.41 149.182 34.5442C148.901 34.6783 148.759 34.8956 148.759 35.1937C148.759 35.4323 148.854 35.6261 149.038 35.7752C149.224 35.9243 149.444 36.0372 149.695 36.116C149.945 36.1926 150.281 36.2736 150.699 36.3588C150.752 36.3737 150.805 36.3865 150.86 36.3928C150.912 36.4014 150.963 36.4077 151.007 36.4163C151.531 36.5164 151.986 36.6356 152.372 36.7741C152.755 36.9125 153.097 37.1574 153.393 37.511C153.689 37.8646 153.839 38.3544 153.839 38.9848C153.839 39.8283 153.554 40.4693 152.983 40.9081C152.411 41.3468 151.639 41.5641 150.665 41.5641C149.881 41.5641 149.226 41.4554 148.7 41.2361C148.176 41.0167 147.637 40.7015 147.09 40.2862L147.489 39.6749C147.641 39.4428 147.827 39.3277 148.049 39.3277L148.045 39.332Z" fill="#070707"/>
<path d="M156.694 33.1747C156.823 33.3046 156.886 33.492 156.886 33.7391V41.4065H156.041C155.796 41.4065 155.61 41.3426 155.481 41.2105C155.352 41.0806 155.289 40.8932 155.289 40.6461V32.9788H156.134C156.377 32.9788 156.565 33.0427 156.694 33.1747Z" fill="#070707"/>
</svg>
