<svg width="269" height="159" viewBox="0 0 269 159" fill="none" xmlns="http://www.w3.org/2000/svg">
<path d="M11.2969 96.7295H32.2969L38.7969 110.829H43.2969L21.7969 64.2295L0.296875 110.829H4.79688L11.2969 96.7295ZM21.7969 74.0295L30.4969 92.9295H12.9969L21.7969 74.0295Z" fill="black"/>
<path d="M138.797 64.3291V68.5291V84.9291V88.7291V106.629V110.729H169.897V106.629H142.897V88.7291H163.797V84.9291H142.897V68.5291H169.897V64.3291H138.797Z" fill="black"/>
<path d="M94.7969 68.5291H109.697V110.729H113.897V68.5291H128.797V64.3291H94.7969V68.5291Z" fill="black"/>
<path d="M264.595 84.9291H237.795V64.3291H233.695V110.729H237.795V88.7291H264.595V110.729H268.695V88.7291V84.9291V64.3291H264.595V84.9291Z" fill="black"/>
<path d="M201.3 107.729C190.2 107.729 181.1 98.6295 181.1 87.5295C181.1 76.4295 190.2 67.3295 201.3 67.3295C207.3 67.3295 212.9 69.9295 216.8 74.5295L219.9 71.9295C215.3 66.4295 208.5 63.2295 201.3 63.2295C187.9 63.2295 177 74.1295 177 87.5295C177 100.929 187.9 111.829 201.3 111.829C208.9 111.829 216.1 108.229 220.7 102.129L217.4 99.6295C213.6 104.729 207.6 107.729 201.3 107.729Z" fill="black"/>
<path d="M67.1984 64.3291H61.0984H53.8984V64.9291V110.729H61.0984H67.1984C79.9984 110.729 90.3984 100.329 90.3984 87.5291C90.3984 74.7291 79.9984 64.3291 67.1984 64.3291ZM67.1984 106.629H61.0984H57.9984V68.4291H61.0984H67.1984C77.6984 68.4291 86.2984 77.0291 86.2984 87.5291C86.2984 98.0291 77.6984 106.629 67.1984 106.629Z" fill="black"/>
<path d="M75.9984 2.22949L57.4984 33.9295L38.9984 2.22949H29.3984L57.4984 50.3295L85.5984 2.22949H75.9984Z" fill="#FFC836"/>
<path d="M173.002 46.3291C180.302 42.1291 185.302 34.2291 185.302 25.1291C185.302 11.7291 174.502 0.829102 161.202 0.829102C147.902 0.829102 137.102 11.7291 137.102 25.1291C137.102 34.2291 142.102 42.1291 149.402 46.3291C152.902 48.3291 156.902 49.4291 161.102 49.4291C165.602 49.4291 169.602 48.2291 173.002 46.3291ZM161.302 8.5291C170.102 8.5291 177.302 16.2291 177.302 25.1291C177.302 34.0291 170.102 41.7291 161.302 41.7291C152.502 41.7291 145.302 34.0291 145.302 25.1291C145.302 16.2291 152.502 8.5291 161.302 8.5291Z" fill="#FFC836"/>
<path d="M231.295 2.22852V32.5285L198.695 2.22852H194.695V48.0285H202.995V17.6285L235.695 48.0285H239.495V2.22852H231.295Z" fill="#FFC836"/>
<path d="M102.997 40.2285V28.3285H122.397V20.8285H102.997V10.1285H128.197V2.22852H94.7969V47.5285V48.0285H128.297V47.5285V40.2285H102.997Z" fill="#FFC836"/>
<rect x="0.296875" y="127.829" width="268" height="31" fill="#FFC836"/>
<path d="M17.9412 151.22V135.09H25.2689C27.0202 135.09 28.564 135.428 29.9005 136.104C31.237 136.764 32.2816 137.693 33.0344 138.892C33.7871 140.09 34.1635 141.511 34.1635 143.155C34.1635 144.783 33.7871 146.204 33.0344 147.418C32.2816 148.616 31.237 149.553 29.9005 150.229C28.564 150.889 27.0202 151.22 25.2689 151.22H17.9412ZM21.6742 148.155H25.0846C26.1599 148.155 27.0893 147.955 27.8728 147.556C28.6716 147.141 29.2861 146.557 29.7162 145.805C30.1617 145.052 30.3844 144.169 30.3844 143.155C30.3844 142.125 30.1617 141.242 29.7162 140.505C29.2861 139.752 28.6716 139.176 27.8728 138.777C27.0893 138.362 26.1599 138.154 25.0846 138.154H21.6742V148.155ZM60.9434 151.22V135.09H64.6764V151.22H60.9434ZM100.258 151.496C98.9826 151.496 97.8074 151.297 96.732 150.897C95.6721 150.482 94.7427 149.899 93.9438 149.146C93.1604 148.393 92.5459 147.51 92.1004 146.496C91.6703 145.482 91.4552 144.368 91.4552 143.155C91.4552 141.941 91.6703 140.827 92.1004 139.813C92.5459 138.8 93.1681 137.916 93.9669 137.164C94.7657 136.411 95.7028 135.835 96.7781 135.435C97.8535 135.021 99.0363 134.813 100.327 134.813C101.755 134.813 103.038 135.051 104.175 135.527C105.327 136.004 106.295 136.695 107.078 137.601L104.682 139.813C104.098 139.199 103.461 138.746 102.769 138.454C102.078 138.147 101.325 137.993 100.511 137.993C99.7276 137.993 99.0133 138.116 98.3681 138.362C97.7229 138.608 97.1622 138.961 96.686 139.422C96.2251 139.883 95.8641 140.428 95.6029 141.058C95.3571 141.688 95.2342 142.387 95.2342 143.155C95.2342 143.907 95.3571 144.599 95.6029 145.229C95.8641 145.858 96.2251 146.411 96.686 146.888C97.1622 147.349 97.7152 147.702 98.345 147.948C98.9903 148.193 99.6969 148.316 100.465 148.316C101.202 148.316 101.917 148.201 102.608 147.971C103.315 147.725 103.998 147.318 104.659 146.749L106.779 149.445C105.903 150.106 104.882 150.613 103.714 150.966C102.562 151.32 101.41 151.496 100.258 151.496ZM106.779 149.445L103.368 148.962V142.901H106.779V149.445ZM134.211 151.22V135.09H137.944V151.22H134.211ZM169.078 151.22V138.131H163.916V135.09H177.973V138.131H172.811V151.22H169.078ZM201.016 151.22L208.205 135.09H211.892L219.105 151.22H215.187L209.288 136.979H210.763L204.841 151.22H201.016ZM204.61 147.763L205.601 144.929H213.897L214.911 147.763H204.61ZM244.743 151.22V135.09H248.476V148.178H256.564V151.22H244.743Z" fill="black"/>
</svg>
