<svg width="157" height="50" viewBox="0 0 157 50" fill="none" xmlns="http://www.w3.org/2000/svg">
	<path
		d="M26.6299 43.2081H35.4689L38.2048 49.1199H40.0989L31.0494 29.5818L22 49.1199H23.8941L26.6299 43.2081ZM31.0494 33.6907L34.7113 41.6149H27.3455L31.0494 33.6907Z"
		fill="black" />
	<path
		d="M80.2954 29.6238V31.3847V38.2608V39.854V47.359V49.078H93.3855V47.359H82.0211V39.854H90.818V38.2608H82.0211V31.3847H93.3855V29.6238H80.2954Z"
		fill="black" />
	<path
		d="M61.7754 31.3847H68.0469V49.078H69.8147V31.3847H76.0861V29.6238H61.7754V31.3847Z"
		fill="black" />
	<path
		d="M133.245 38.2608H121.964V29.6238H120.239V49.078H121.964V39.854H133.245V49.078H134.97V39.854V38.2608V29.6238H133.245V38.2608Z"
		fill="black" />
	<path
		d="M106.602 47.8202C101.93 47.8202 98.0997 44.0048 98.0997 39.3509C98.0997 34.697 101.93 30.8816 106.602 30.8816C109.127 30.8816 111.484 31.9717 113.126 33.9004L114.431 32.8103C112.495 30.5043 109.633 29.1626 106.602 29.1626C100.962 29.1626 96.374 33.7327 96.374 39.3509C96.374 44.9692 100.962 49.5392 106.602 49.5392C109.801 49.5392 112.831 48.0298 114.768 45.4723L113.379 44.4241C111.779 46.5624 109.254 47.8202 106.602 47.8202Z"
		fill="black" />
	<path
		d="M50.1586 29.6238H47.5911H44.5605V29.8753V49.078H47.5911H50.1586C55.5461 49.078 59.9235 44.7176 59.9235 39.3509C59.9235 33.9842 55.5461 29.6238 50.1586 29.6238ZM50.1586 47.359H47.5911H46.2863V31.3428H47.5911H50.1586C54.5781 31.3428 58.1978 34.9485 58.1978 39.3509C58.1978 43.7533 54.5781 47.359 50.1586 47.359Z"
		fill="black" />
	<path
		d="M53.8622 3.58691L46.0755 16.8778L38.2887 3.58691H34.248L46.0755 23.7539L57.9029 3.58691H53.8622Z"
		fill="black" />
	<path
		d="M94.6896 22.0769C97.7622 20.3159 99.8667 17.0037 99.8667 13.1883C99.8667 7.57006 95.3209 3 89.7229 3C84.1249 3 79.5791 7.57006 79.5791 13.1883C79.5791 17.0037 81.6836 20.3159 84.7562 22.0769C86.2294 22.9154 87.913 23.3766 89.6808 23.3766C91.5749 23.3766 93.2585 22.8735 94.6896 22.0769ZM89.765 6.22839C93.4689 6.22839 96.4995 9.45679 96.4995 13.1883C96.4995 16.9198 93.4689 20.1482 89.765 20.1482C86.061 20.1482 83.0305 16.9198 83.0305 13.1883C83.0305 9.45679 86.061 6.22839 89.765 6.22839Z"
		fill="black" />
	<path
		d="M119.229 3.58691V16.2909L105.507 3.58691H103.824V22.7896H107.317V10.0437L121.081 22.7896H122.68V3.58691H119.229Z"
		fill="black" />
	<path
		d="M65.2268 19.5193V14.5299H73.3923V11.3854H65.2268V6.89916H75.8336V3.58691H61.7754V22.5799V22.7896H75.8757V22.5799V19.5193H65.2268Z"
		fill="black" />
</svg>
