<svg width="405" height="94" viewBox="0 0 405 94" fill="none" xmlns="http://www.w3.org/2000/svg"><path d="M368.277 81.606c-12.385 0-14.767-10.677-7.336-25.358 7.241-14.777 20.769-25.55 32.678-25.55 12.004 0 14.672 10.582 7.241 25.55-7.241 14.776-19.817 25.358-32.583 25.358zm-15.434-62.253c4.859 0 3.525 11.345-2.763 22.594h13.148C377.518 11.727 366.657 0 354.368 0c-19.912 0-42.301 20.116-56.401 45.951C283.2 73.026 284.915 94 303.874 94c21.531 0 42.395-19.353 57.162-46.428h-28.104l-5.526 8.961h18.482l.667-8.103c-9.05 15.826-19.53 26.122-25.437 26.122-5.812 0-3.525-11.727 5.526-27.552 9.146-15.92 19.911-27.647 26.199-27.647zm36.775 36.8c4.763-8.009 5.335-13.73 2.477-13.73-3.144 0-8.194 5.912-12.862 13.73-4.859 7.912-5.43 13.632-2.477 13.632 3.144 0 8.193-5.91 12.862-13.633zM88.154 47.293v20.958c0 3.874.19 7.78.571 11.717H77.682c-.444-1.143-.73-2.413-.857-3.81h-.476c-1.079 1.143-2.475 2.19-4.189 3.143-1.65.89-4.156 1.334-7.52 1.334-4.38 0-7.933-1.302-10.662-3.906-2.666-2.667-3.999-6.414-3.999-11.24 0-4.891 2-8.67 5.998-11.337 4.062-2.731 10.408-4.096 19.04-4.096h1.808v-2.668c0-2.604-.635-4.414-1.904-5.43-1.27-1.08-3.268-1.62-5.997-1.62-1.904 0-3.872.255-5.903.763-2.03.444-3.903 1.048-5.616 1.81-1.65.698-2.983 1.429-3.999 2.19v-9.43c1.714-1.016 3.999-2 6.855-2.953 2.92-.953 6.251-1.43 9.995-1.43 6.03 0 10.504 1.207 13.424 3.62 2.982 2.414 4.474 6.542 4.474 12.385zM76.825 68.537V58.153h-1.618c-4.824 0-8.314.572-10.472 1.715-2.094 1.08-3.142 2.984-3.142 5.715 0 2.033.603 3.684 1.81 4.954 1.205 1.207 2.982 1.81 5.33 1.81 2.031 0 3.713-.381 5.046-1.143 1.333-.762 2.348-1.651 3.046-2.667zm31.892-22.959v34.39H97.388V32.051h11.043l.286 4.001h.571c1.142-1.143 2.761-2.223 4.855-3.239 2.094-1.016 4.823-1.524 8.187-1.524 4.633 0 7.965 1.111 9.996 3.334 2.031 2.16 3.046 5.62 3.046 10.384v34.961h-11.328V46.15c0-3.557-1.936-5.335-5.807-5.335-2.031 0-3.872.476-5.522 1.43-1.587.952-2.919 2.063-3.998 3.333zm52.359 35.343c-5.331 0-9.679-2.128-13.042-6.383-3.364-4.255-5.046-10.32-5.046-18.195 0-8.002 1.714-14.194 5.141-18.576 3.49-4.446 7.965-6.669 13.423-6.669 5.077 0 9.075 2.191 11.995 6.574V13.76h11.328v66.207h-10.471l-.572-6.192c-3.046 4.763-7.298 7.145-12.756 7.145zm3.332-40.868c-3.237 0-5.68 1.302-7.33 3.906-1.587 2.604-2.38 6.732-2.38 12.384 0 5.398.761 9.367 2.284 11.908 1.524 2.477 3.84 3.715 6.95 3.715 3.173 0 5.553-1.27 7.14-3.81 1.65-2.54 2.475-6.605 2.475-12.194 0-5.525-.762-9.558-2.285-12.099-1.523-2.54-3.808-3.81-6.854-3.81zm66.258 36.676c-1.65 1.143-3.808 2.128-6.474 2.953-2.665.826-5.807 1.239-9.424 1.239-7.235 0-12.82-2.033-16.755-6.097-3.935-4.128-5.902-10.352-5.902-18.672 0-4.826.729-9.113 2.189-12.86 1.523-3.81 3.776-6.795 6.759-8.955 3.047-2.159 6.855-3.239 11.424-3.239 3.808 0 7.108.762 9.901 2.287 2.792 1.524 4.95 3.969 6.473 7.335 1.523 3.302 2.285 7.748 2.285 13.337v6.001H203.82c.254 4.001 1.269 6.986 3.046 8.955 1.777 1.968 4.729 2.953 8.854 2.953 2.792 0 5.521-.445 8.187-1.334 2.729-.889 4.982-1.937 6.759-3.143v9.24zm-18.373-36.676c-5.331 0-8.156 3.874-8.473 11.622h15.803v-.953c0-2.985-.54-5.493-1.618-7.525-1.016-2.096-2.92-3.144-5.712-3.144zm53.216 39.915l-10.187-16.195-9.615 16.195h-11.519l15.042-24.959-14.47-22.958h12.756l9.139 14.48 8.187-14.48h11.329l-13.518 23.244 15.612 24.673h-12.756zm-232.285 0H21.705V61.011L0 13.76h11.995L28.94 50.722c1.08 2.35 1.936 4.35 2.57 6.002a21.882 21.882 0 011.333 5.049c.254 1.778.381 4.096.381 6.954v11.241zm7.521-34.2h-11.71l14.09-32.007h11.71l-14.09 32.008z" fill="#000"/></svg>