<svg width="183" height="51" viewBox="0 0 183 51" fill="none" xmlns="http://www.w3.org/2000/svg">
	<g clip-path="url(#clip0_456_197)">
		<path
			d="M145.321 0.219971H165.15C169.885 0.219971 174.424 2.06055 177.773 5.33772C181.12 8.6149 183.002 13.0587 183.002 17.691V32.749C183.002 35.0424 182.539 37.316 181.644 39.4356C180.746 41.5551 179.433 43.4808 177.775 45.104C176.117 46.7254 174.15 48.0135 171.983 48.8903C169.818 49.7689 167.496 50.22 165.152 50.22H145.529C143.184 50.22 140.864 49.7689 138.697 48.8903C136.532 48.0116 134.563 46.7254 132.905 45.104C131.248 43.4827 129.932 41.5551 129.036 39.4356C128.139 37.316 127.678 35.0442 127.678 32.749V17.691C127.678 8.04062 135.465 0.219971 145.325 0.219971L145.321 0.219971Z"
			fill="black" />
		<path
			d="M150.177 28.49V27.6422H144.955V23.865H155.136V28.3578C155.136 35.4302 151.685 39.5389 145.159 39.5389C138.632 39.5389 134.519 34.3487 134.519 25.1965C134.519 16.0443 138.784 10.8088 146.611 10.8088C149.568 10.8088 152.118 11.5751 153.511 12.5733V16.461C151.509 15.2472 149.203 14.5951 146.85 14.5788C141.717 14.5788 139.541 17.99 139.541 25.1947C139.541 32.3994 141.343 35.7581 145.251 35.7581C148.985 35.7762 150.175 32.9483 150.175 28.49H150.177Z"
			fill="white" />
		<path
			d="M171.202 29.0224C171.202 24.363 169.842 22.3177 167.14 22.3177C164.439 22.3177 163.077 24.363 163.077 29.0731C163.077 33.7833 164.437 35.7797 167.14 35.7797C169.844 35.7797 171.202 33.7163 171.202 29.0224ZM176.25 29.0224C176.25 35.8123 172.51 39.555 167.135 39.555C161.76 39.555 158.02 35.8123 158.02 29.0731C158.02 22.334 161.76 18.5405 167.135 18.5405C172.51 18.5405 176.25 22.267 176.25 29.0224Z"
			fill="white" />
		<path
			d="M33.0362 34.3124C32.4256 35.2001 31.271 35.9102 29.5557 35.9102C27.5111 35.9102 26.4878 34.7472 26.4878 32.9881C26.4878 30.6621 28.1698 29.8559 32.3423 29.8559H33.0344V34.3124H33.0362ZM91.2891 22.3323C93.6964 22.3323 94.4384 24.3015 94.4384 26.8215V27.2255H87.6439C87.7586 24.0117 88.9465 22.3323 91.2891 22.3323ZM70.6891 22.3323C73.311 22.3323 74.6137 24.3831 74.6137 29.0171C74.6137 33.6512 73.2278 35.7508 70.4744 35.7508C67.7211 35.7508 66.4999 33.749 66.4999 29.1784C66.5165 24.4157 67.9024 22.3323 70.6891 22.3323ZM114.165 39.1258H119.657L112.944 28.7436L118.75 18.9736H113.886L110.372 25.0606L106.447 18.9736H100.939L107.156 28.6294L100.691 39.1258H105.639L109.778 32.3124L114.165 39.1258ZM37.9008 25.3831C37.9008 20.49 35.3603 18.6494 30.1978 18.6494C26.9985 18.6494 24.4247 19.9736 22.9573 21.0063V25.1403C24.5079 23.8976 26.8819 22.4592 29.6371 22.4592C31.963 22.4592 33.0344 23.2671 33.0344 25.4302V26.7055H32.2591C24.804 26.7055 21.49 29.0624 21.49 33.278C21.49 37.1693 24.0305 39.4139 27.7905 39.4139C30.6604 39.4139 31.8816 38.4936 32.8216 37.5244H33.0196C33.0529 38.0407 33.2176 38.72 33.3822 39.1222H38.1321C37.9674 37.4755 37.8841 35.8287 37.8841 34.1965V25.3794H37.9008V25.3831ZM46.7418 24.6566C47.6485 23.5751 49.0677 22.6548 50.8329 22.6548C52.5982 22.6548 53.3235 23.3813 53.3235 24.8994V39.1258H58.1881V24.4157C58.1881 20.4102 56.5561 18.6512 52.5797 18.6512C49.6765 18.6512 47.9612 19.7001 46.9712 20.653H46.7233L46.6086 18.9736H41.8587V39.1258H46.7233V24.6584H46.7399L46.7418 24.6566ZM99.1882 37.7689V33.8776C97.6709 34.8794 95.1304 35.7671 92.7564 35.7671C89.1945 35.7671 87.8419 34.1204 87.6439 30.7617H99.3862V28.2273C99.3862 21.22 96.2369 18.5715 91.3705 18.5715C85.4327 18.5715 82.6128 23.0117 82.6128 29.115C82.6128 36.1222 86.1266 39.5298 92.3604 39.5298C95.4616 39.5298 97.7542 38.7218 99.1882 37.7689ZM69.255 39.5298C71.5476 39.5298 73.4276 38.4809 74.7469 36.5262L74.9948 39.1258H79.4968V11.2708H74.6322V21.3305C73.4109 19.5226 71.5976 18.5697 69.4697 18.5697C64.7698 18.5697 61.4873 22.461 61.4873 29.1947C61.4873 35.9284 64.6699 39.5298 69.255 39.5298ZM17.5155 24.7381L23.5846 11.2708H18.5535L12.4843 24.7381H17.5155ZM14.2829 39.1258V34.3939C14.2829 30.8251 13.8369 29.7925 12.4362 26.8215L5.16249 11.2708H0L9.33504 31.1476V39.124H14.2829V39.1258Z"
			fill="black" />
	</g>
	<defs>
		<clipPath id="clip0_456_197">
			<rect width="183" height="50" fill="white" transform="translate(0 0.219971)" />
		</clipPath>
	</defs>
</svg>
