<?xml version="1.0" standalone="no"?>
<!DOCTYPE svg PUBLIC "-//W3C//DTD SVG 20010904//EN"
 "http://www.w3.org/TR/2001/REC-SVG-20010904/DTD/svg10.dtd">
<svg version="1.0" xmlns="http://www.w3.org/2000/svg"
 width="700.000000pt" height="700.000000pt" viewBox="0 0 700.000000 700.000000"
 preserveAspectRatio="xMidYMid meet">
<metadata>
Created by potrace 1.14, written by Peter Selinger 2001-2017
</metadata>
<g transform="translate(0.000000,700.000000) scale(0.100000,-0.100000)"
fill="#000000" stroke="none">
<path d="M3280 6994 c-19 -2 -84 -9 -145 -14 -547 -53 -1095 -251 -1570 -565
-186 -123 -331 -241 -495 -402 l-135 -132 2564 -1 2564 0 -44 48 c-75 81 -230
223 -339 310 -511 406 -1112 658 -1765 738 -122 15 -556 27 -635 18z"/>
<path d="M110 4373 c-23 -81 -71 -335 -87 -463 -24 -188 -24 -632 0 -820 16
-128 64 -382 87 -462 l11 -38 3378 0 c2951 0 3380 2 3384 15 25 62 75 334 99
525 17 139 17 603 0 740 -24 193 -75 463 -99 525 -4 13 -433 15 -3384 15
l-3378 0 -11 -37z"/>
<path d="M1035 1019 c552 -557 1278 -904 2100 -1001 236 -28 673 -15 930 28
745 122 1458 497 1951 1024 l47 50 -2564 0 -2564 0 100 -101z"/>
</g>
</svg>
