<svg width="58" height="52" viewBox="0 0 58 52" fill="none" xmlns="http://www.w3.org/2000/svg">
	<g clip-path="url(#clip0_363_292)">
		<path
			d="M25.8 50.5243C22.5667 50.1242 19.5167 49.1073 16.65 47.4737C13.7833 45.8401 11.3333 43.7231 9.3 41.1226C8.73333 40.4225 8.46667 39.8391 8.5 39.3723C8.53333 38.9056 8.86667 38.6722 9.5 38.6722C9.76667 38.6722 9.95833 38.7222 10.075 38.8222C10.1917 38.9222 10.4667 39.2556 10.9 39.8224C13.2667 42.8229 16.1833 45.09 19.65 46.6236C23.05 48.1238 26.6 48.7573 30.3 48.5239C34.1 48.3239 37.6333 47.2237 40.9 45.2233C42.0667 44.5232 43.1167 43.7481 44.05 42.8979C44.9833 42.0478 46.1 40.8559 47.4 39.3223L47.95 38.6722H48.4C49.0333 38.6722 49.3667 38.9056 49.4 39.3723C49.4333 39.8391 49.1667 40.4392 48.6 41.1726C46.8 43.4397 44.6667 45.34 42.2 46.8736C39.7333 48.4072 37.0917 49.4907 34.275 50.1242C31.4583 50.7576 28.6333 50.891 25.8 50.5243ZM26.7 42.5729C25.1333 42.3395 23.7167 41.9561 22.45 41.4227C21.1833 40.8893 20.3583 40.3475 19.975 39.7974C19.5917 39.2473 19.8 38.8389 20.6 38.5722L21 38.4222L22.35 39.0723C23.25 39.4723 23.875 39.7391 24.225 39.8724C24.575 40.0058 24.775 40.0224 24.825 39.9224C24.875 39.8224 24.8 39.6057 24.6 39.2723C23.9333 38.1054 23.3583 36.4885 22.875 34.4215C22.3917 32.3544 22.1 30.3041 22 28.2704L21.95 26.7201H18.5L18.25 26.4201C18.05 26.2201 17.9583 25.97 17.975 25.67C17.9917 25.3699 18.0833 25.1365 18.25 24.9698L18.55 24.7198H21.95L22 23.1195C22.1 21.0858 22.3917 19.0355 22.875 16.9685C23.3583 14.9014 23.9333 13.2845 24.6 12.1176C24.8667 11.6842 24.8083 11.4758 24.425 11.4925C24.0417 11.5092 23.4667 11.7175 22.7 12.1176C21.9333 12.5177 21.15 13.0178 20.35 13.6179C19.45 14.2513 18.7 14.8848 18.1 15.5182C17.3333 16.3517 16.7083 16.7768 16.225 16.7934C15.7417 16.8101 15.5 16.435 15.5 15.6682V15.2182L16.7 13.9179C18.9 11.6175 21.5167 10.0673 24.55 9.26713C27.4833 8.46699 30.4167 8.46699 33.35 9.26713C36.3833 10.0673 39 11.6175 41.2 13.9179L42.45 15.2182V15.6682C42.45 16.435 42.2 16.8101 41.7 16.7934C41.2 16.7768 40.5667 16.3517 39.8 15.5182C39.2 14.9181 38.4667 14.2847 37.6 13.6179C36.8 13.0511 36.0083 12.5594 35.225 12.1426C34.4417 11.7259 33.85 11.4925 33.45 11.4425C33.05 11.3925 32.9833 11.5842 33.25 12.0176C33.9167 13.1511 34.5 14.7764 35 16.8934C35.5 19.0105 35.8 21.1025 35.9 23.1695L36 24.7198H39.4L39.65 25.0198C39.85 25.1865 39.9417 25.4199 39.925 25.72C39.9083 26.02 39.8167 26.2534 39.65 26.4201L39.35 26.7201H36L35.9 28.2704C35.8 30.3041 35.5 32.3878 35 34.5215C34.5 36.6552 33.9167 38.2888 33.25 39.4223C33.0833 39.7224 33.0333 39.9058 33.1 39.9724C33.1667 40.0391 33.3833 40.0058 33.75 39.8724C34.1167 39.7391 34.7167 39.4723 35.55 39.0723L36.9 38.4222L37.3 38.5722C37.7333 38.7055 37.95 39.0473 37.95 39.5974C37.95 40.1475 37.2833 40.7059 35.95 41.2727C34.6833 41.8061 33.1667 42.2061 31.4 42.4729C29.5667 42.7396 28 42.7729 26.7 42.5729ZM29.7 40.3725C30.3667 40.0391 31.0167 39.1806 31.65 37.7971C32.2833 36.4135 32.8 34.8049 33.2 32.9712C33.6 31.0709 33.8 29.2873 33.8 27.6203V26.7201H24.05L24.1 28.2704C24.2 30.2041 24.4583 32.0461 24.875 33.7964C25.2917 35.5467 25.8083 37.0136 26.425 38.1971C27.0417 39.3807 27.7 40.1225 28.4 40.4225C28.6667 40.5559 28.875 40.6142 29.025 40.5975C29.175 40.5809 29.4 40.5059 29.7 40.3725ZM33.8 23.8196C33.8 22.0527 33.5833 20.2023 33.15 18.2687C32.75 16.4017 32.2167 14.7847 31.55 13.4178C30.8833 12.0509 30.2 11.2341 29.5 10.9674C28.7333 10.6674 27.95 11.0424 27.15 12.0926C26.35 13.1428 25.6667 14.6514 25.1 16.6184C24.5333 18.6187 24.2 20.7858 24.1 23.1195L24.05 24.7198H33.8V23.8196ZM0.25 36.4218L0 36.1218V33.3713C0 30.9042 0.45 28.9372 1.35 27.4703C2.25 26.0033 3.55 25.1365 5.25 24.8698L5.75 24.8198L5.5 24.4197C4.7 23.3196 4.225 22.1444 4.075 20.8941C3.925 19.6439 4.09167 18.5021 4.575 17.4685C5.05833 16.435 5.81667 15.6682 6.85 15.1681L7.7 14.7681H10.3L11.15 15.1681C12.15 15.6682 12.9 16.435 13.4 17.4685C13.9 18.5021 14.075 19.6439 13.925 20.8941C13.775 22.1444 13.3 23.3196 12.5 24.4197L12.25 24.8198L12.7 24.8698C14.4333 25.1365 15.7417 25.995 16.625 27.4453C17.5083 28.8955 17.95 30.8709 17.95 33.3713V36.1218L17.7 36.4218L17.4 36.6719H0.55L0.25 36.4218ZM15.95 33.2713C15.95 31.6043 15.7333 30.2958 15.3 29.3456C14.8667 28.3954 14.15 27.7203 13.15 27.3202C12.15 26.9202 10.7583 26.7201 8.975 26.7201C7.19167 26.7201 5.8 26.9202 4.8 27.3202C3.8 27.7203 3.08333 28.3954 2.65 29.3456C2.21667 30.2958 2 31.6043 2 33.2713V34.6715H15.95V33.2713ZM9.4 24.5198C10.2333 24.1864 10.8667 23.5863 11.3 22.7194C11.7 21.9193 11.8667 21.0525 11.8 20.119C11.7333 19.1855 11.4667 18.4187 11 17.8186C10.4667 17.1518 9.78333 16.8184 8.95 16.8184C8.11667 16.8184 7.45833 17.1352 6.975 17.7686C6.49167 18.402 6.225 19.1855 6.175 20.119C6.125 21.0525 6.3 21.9193 6.7 22.7194C7.13333 23.5863 7.75 24.1864 8.55 24.5198L8.65 24.5698C8.81667 24.6364 8.925 24.6698 8.975 24.6698C9.025 24.6698 9.11667 24.6364 9.25 24.5698L9.4 24.5198ZM40.2 36.4218L39.95 36.1218V33.3713C39.95 30.9042 40.4 28.9372 41.3 27.4703C42.2 26.0033 43.5 25.1365 45.2 24.8698L45.65 24.8198L45.4 24.4197C44.6 23.3196 44.125 22.1444 43.975 20.8941C43.825 19.6439 44 18.5021 44.5 17.4685C45 16.435 45.75 15.6682 46.75 15.1681L47.6 14.7681H50.25L51.05 15.1681C52.0833 15.6682 52.8417 16.435 53.325 17.4685C53.8083 18.5021 53.975 19.6439 53.825 20.8941C53.675 22.1444 53.2 23.3196 52.4 24.4197L52.15 24.8198L52.65 24.8698C54.35 25.1365 55.65 26.0033 56.55 27.4703C57.45 28.9372 57.9 30.9042 57.9 33.3713V36.1218L57.6 36.4218L57.3 36.6719H40.45L40.2 36.4218ZM55.9 33.2713C55.9 31.6043 55.6833 30.2958 55.25 29.3456C54.8167 28.3954 54.1 27.7203 53.1 27.3202C52.1 26.9202 50.7083 26.7201 48.925 26.7201C47.1417 26.7201 45.75 26.9202 44.75 27.3202C43.75 27.7203 43.0333 28.3954 42.6 29.3456C42.1667 30.2958 41.95 31.6043 41.95 33.2713V34.6715H55.9V33.2713ZM49.35 24.5198C50.15 24.1864 50.7667 23.5863 51.2 22.7194C51.6 21.9193 51.775 21.0525 51.725 20.119C51.675 19.1855 51.4167 18.4187 50.95 17.8186C50.4167 17.1518 49.7333 16.8184 48.9 16.8184C48.0667 16.8184 47.4083 17.1352 46.925 17.7686C46.4417 18.402 46.175 19.1855 46.125 20.119C46.075 21.0525 46.25 21.9193 46.65 22.7194C47.0833 23.5863 47.7 24.1864 48.5 24.5198L48.6 24.5698C48.7667 24.6364 48.875 24.6698 48.925 24.6698C48.975 24.6698 49.0667 24.6364 49.2 24.5698L49.35 24.5198ZM8.75 12.4177C8.48333 12.151 8.4 11.8509 8.5 11.5175C8.6 11.1841 8.95 10.6674 9.55 9.96725C11.8833 7.03341 14.7667 4.74968 18.2 3.11607C21.5667 1.54913 25.1 0.748989 28.8 0.715649C32.6 0.682312 36.2 1.48245 39.6 3.11607C41.1 3.81618 42.6 4.73301 44.1 5.86654C45.4667 6.90005 46.6417 7.95023 47.625 9.01708C48.6083 10.0839 49.1917 10.9674 49.375 11.6675C49.5583 12.3677 49.2333 12.7177 48.4 12.7177H47.95L46.75 11.3175C44.45 8.55033 41.75 6.4333 38.65 4.96638C35.55 3.49946 32.3083 2.766 28.925 2.766C25.5417 2.766 22.2667 3.5328 19.1 5.0664C17.3667 5.89988 15.8917 6.80837 14.675 7.79187C13.4583 8.77538 12.0667 10.2006 10.5 12.0676L9.95 12.7177H9.5C9.2 12.7177 8.95 12.6177 8.75 12.4177Z"
			fill="currentColor" />
	</g>
	<defs>
		<clipPath id="clip0_363_292">
			<rect width="57.9" height="51" fill="white" transform="matrix(1 0 0 -1 0.0498047 51.22)" />
		</clipPath>
	</defs>
</svg>
