<svg width="50" height="52" viewBox="0 0 50 52" fill="none" xmlns="http://www.w3.org/2000/svg">
	<path
		d="M15.25 46.91C11.45 45.81 8.91667 45.06 7.65 44.66C6.15 44.1933 5.35833 43.9183 5.275 43.835C5.19167 43.7517 5.13333 43.6433 5.1 43.51C5.06667 43.3767 5.05 43.06 5.05 42.56V40.06C5.05 38.3933 5.05833 37.3767 5.075 37.01C5.09167 36.6433 5.15 36.4017 5.25 36.285C5.35 36.1683 8.56667 35.1767 14.9 33.31L24.4 30.56L24.45 25.56V20.56H18.5L18 20.06V1.61001L18.5 1.11001H27.25L32.55 6.41001V20.06L32.05 20.56H26.05V30.51L35.95 33.41C42.05 35.21 45.1667 36.1767 45.3 36.31C45.3667 36.41 45.4167 36.66 45.45 37.06C45.4833 37.5267 45.5 38.5267 45.5 40.06C45.5 41.5933 45.4833 42.5933 45.45 43.06C45.4167 43.46 45.3667 43.71 45.3 43.81C45.1333 43.9767 41.7833 45.01 35.25 46.91C32.7833 47.6433 30.4333 48.31 28.2 48.91C26.2667 49.4767 25.2667 49.76 25.2 49.76C25.1333 49.76 21.8167 48.81 15.25 46.91ZM24.45 45.46L24.4 43.06L15.6 40.51C13.4667 39.8767 11.4 39.26 9.4 38.66L6.75 37.91C6.68333 37.91 6.65 38.71 6.65 40.31V42.66L7.2 42.86L16.25 45.51C21.5833 47.0767 24.275 47.86 24.325 47.86C24.375 47.86 24.4167 47.6933 24.45 47.36V45.46ZM35 45.31L43.8 42.71L43.85 40.31C43.85 38.71 43.825 37.91 43.775 37.91C43.725 37.91 40.925 38.7183 35.375 40.335C29.825 41.9517 26.8833 42.8267 26.55 42.96L26.05 43.11V45.51C26.05 47.0767 26.0833 47.86 26.15 47.86C26.2167 47.86 29.1667 47.01 35 45.31ZM33.55 39.21C36.25 38.41 38.95 37.61 41.65 36.81C41.65 36.7767 39.2167 36.0433 34.35 34.61C29.4833 33.1767 26.8 32.3933 26.3 32.26L26.05 32.21V36.46L27.9 34.61L28.5 35.21L29.05 35.81L27.35 37.51C26.5833 38.2767 26.0833 38.76 25.85 38.96C25.6167 39.16 25.425 39.26 25.275 39.26C25.125 39.26 24.9417 39.1683 24.725 38.985C24.5083 38.8017 24 38.31 23.2 37.51L21.5 35.81L22.05 35.21L22.65 34.61L23.55 35.51L24.45 36.46V32.81C24.45 32.5433 24.4333 32.3767 24.4 32.31C24.3667 32.2433 24.3167 32.2267 24.25 32.26C23.65 32.4267 20.9417 33.2183 16.125 34.635C11.3083 36.0517 8.9 36.7767 8.9 36.81C8.9 36.8433 11.625 37.66 17.075 39.26C22.525 40.86 25.2667 41.6433 25.3 41.61L33.55 39.21ZM30.95 13.26V7.61001H28.2C27.4 7.61001 26.9 7.59334 26.7 7.56001C26.4 7.46001 26.2 7.26001 26.1 6.96001C26.0667 6.76001 26.05 6.26001 26.05 5.46001V2.71001H19.6V18.96H30.95V13.26ZM21.2 16.51V15.71H22.85V17.31H21.2V16.51ZM24.45 16.51V15.71H26.05V17.31H24.45V16.51ZM27.7 16.51V15.71H29.3V17.31H27.7V16.51ZM21.2 13.26V12.46H29.3V14.06H21.2V13.26ZM21.2 10.01V9.21001H29.3V10.86H21.2V10.01ZM21.2 6.76001V5.96001H24.45V7.61001H21.2V6.76001ZM29.7 5.96001C29.7 5.92667 29.3667 5.57668 28.7 4.91001L27.7 3.91001V5.96001H29.7ZM15.1 29.41L13.4 27.66L14.55 26.51L16.35 28.31V27.51C16.35 27.01 16.3083 26.6183 16.225 26.335C16.1417 26.0517 15.9833 25.76 15.75 25.46C15.4167 25.1267 15.1 24.9183 14.8 24.835C14.5 24.7517 13.7667 24.6767 12.6 24.61H12.55C11.5833 24.5767 10.9833 24.5433 10.75 24.51C10.5167 24.4767 10.2333 24.3933 9.9 24.26C9.56667 24.1267 9.18333 23.8767 8.75 23.51C8.45 23.2433 8.18333 22.8767 7.95 22.41C7.71667 21.9433 7.58333 21.51 7.55 21.11L7.45 20.56H1.5L1 20.06V1.61001L1.5 1.11001H10.25L15.55 6.41001V20.06L15.05 20.56H11.6C10.6 20.56 9.98333 20.56 9.75 20.56C9.38333 20.5933 9.175 20.6517 9.125 20.735C9.075 20.8183 9.1 20.9767 9.2 21.21L9.25 21.41C9.31667 21.6433 9.49167 21.91 9.775 22.21C10.0583 22.51 10.3333 22.71 10.6 22.81C10.7 22.8767 11.4667 22.9433 12.9 23.01L14.9 23.06L15.7 23.46C16.1667 23.6933 16.5417 23.96 16.825 24.26C17.1083 24.56 17.3667 24.96 17.6 25.46C17.7667 25.7267 17.8667 25.96 17.9 26.16C17.9333 26.36 17.95 26.71 17.95 27.21L18 28.31L19.8 26.51L20.95 27.66L19.25 29.41C18.4833 30.1767 17.9917 30.6517 17.775 30.835C17.5583 31.0183 17.3667 31.11 17.2 31.11C17.0333 31.11 16.8333 31.0183 16.6 30.835C16.3667 30.6517 15.8667 30.1767 15.1 29.41ZM13.95 13.26V7.61001H11.2C10.4333 7.61001 9.93333 7.59334 9.7 7.56001C9.4 7.49334 9.21667 7.31001 9.15 7.01001C9.11667 6.81001 9.1 6.32668 9.1 5.56001V2.71001H2.65V18.96H13.95V13.26ZM4.25 16.51V15.71H12.35V17.31H4.25V16.51ZM4.25 13.26V12.46H12.35V14.06H4.25V13.26ZM4.25 10.01V9.21001H12.35V10.86H4.25V10.01ZM4.25 6.76001V5.96001H7.5V7.61001H4.25V6.76001ZM12.75 5.96001C12.75 5.89334 12.4 5.54334 11.7 4.91001L10.7 3.91001V5.96001H12.75ZM31.3 29.41L29.55 27.66L30.15 27.11L30.7 26.51L32.5 28.31L32.55 27.16C32.5833 26.66 32.625 26.3183 32.675 26.135C32.725 25.9517 32.8333 25.6767 33 25.31C33.4 24.4433 34.05 23.7933 34.95 23.36C35.2833 23.2267 35.5667 23.1433 35.8 23.11C36.0333 23.0767 36.6333 23.0433 37.6 23.01H37.65C38.9833 22.9767 39.775 22.9017 40.025 22.785C40.275 22.6683 40.5333 22.4517 40.8 22.135C41.0667 21.8183 41.2333 21.5433 41.3 21.31L41.35 21.16C41.4167 20.9267 41.425 20.7767 41.375 20.71C41.325 20.6433 41.1333 20.5933 40.8 20.56C40.5333 20.56 39.9333 20.56 39 20.56H35.45L34.95 20.06V1.61001L35.45 1.11001H44.2L49.5 6.41001V20.06L49 20.56H43.1L42.95 21.26C42.6833 22.6267 41.95 23.61 40.75 24.21L40 24.56L37.95 24.66C37.4167 24.66 36.9 24.6767 36.4 24.71C36 24.7433 35.7583 24.7767 35.675 24.81C35.5917 24.8433 35.475 24.91 35.325 25.01C35.175 25.11 35.05 25.2267 34.95 25.36C34.65 25.5933 34.4417 25.8683 34.325 26.185C34.2083 26.5017 34.15 26.9433 34.15 27.51V28.31L35.05 27.41L36 26.51L36.55 27.11L37.15 27.66L35.4 29.41C34.6333 30.1767 34.1417 30.6517 33.925 30.835C33.7083 31.0183 33.5167 31.11 33.35 31.11C33.1833 31.11 32.9917 31.0183 32.775 30.835C32.5583 30.6517 32.0667 30.1767 31.3 29.41ZM47.9 13.26V7.61001H45.2C44.4 7.61001 43.9 7.59334 43.7 7.56001C43.4 7.49334 43.2 7.31001 43.1 7.01001C43.0667 6.81001 43.05 6.32668 43.05 5.56001V2.71001H36.6V18.96H47.9V13.26ZM38.2 16.51V15.71H46.3V17.31H38.2V16.51ZM38.2 13.26V12.46H46.3V14.06H38.2V13.26ZM38.2 10.01V9.21001H46.3V10.86H38.2V10.01ZM38.2 6.76001V5.96001H41.45V7.61001H38.2V6.76001ZM46.7 5.96001C46.7 5.92667 46.3667 5.57668 45.7 4.91001L44.65 3.91001V5.96001H46.7Z"
		fill="#F17425" />
</svg>
