<svg width="50" height="52" viewBox="0 0 50 52" fill="none" xmlns="http://www.w3.org/2000/svg">
	<g clip-path="url(#clip0_363_320)">
		<path
			d="M18.7 51.24C18.2333 51.0733 17.8417 50.815 17.525 50.465C17.2083 50.115 16.9833 49.7233 16.85 49.29L16.75 48.89H16C15.4 48.8567 14.8333 48.6567 14.3 48.29C13.7667 47.9233 13.4167 47.4733 13.25 46.94L13.1 46.44L12.45 46.49C11.7833 46.49 11.1917 46.315 10.675 45.965C10.1583 45.615 9.79167 45.14 9.575 44.54C9.35833 43.94 9.33333 43.29 9.5 42.59L9.6 42.29H9.4C8.66667 42.29 8.125 41.9733 7.775 41.34C7.425 40.7067 7.33333 39.9483 7.5 39.065C7.66667 38.1817 8.06667 37.4067 8.7 36.74L9.7 35.74L9.65 34.54C9.65 33.8067 9.60833 33.34 9.525 33.14C9.44167 32.94 9.16667 32.6067 8.7 32.14L7.75 31.19L7.15 31.74C6.75 32.14 6.4 32.39 6.1 32.49C5.8 32.59 5.46667 32.5733 5.1 32.44C4.93333 32.3733 4.09167 31.59 2.575 30.09C1.05833 28.59 0.25 27.7567 0.15 27.59C0.05 27.4233 0 27.1817 0 26.865C0 26.5483 0.025 26.315 0.075 26.165C0.125 26.015 1.975 24.1067 5.625 20.44C9.275 16.7733 11.2167 14.8567 11.45 14.69C11.8167 14.4567 12.1333 14.3483 12.4 14.365C12.6667 14.3817 13.0333 14.5733 13.5 14.94C13.8667 15.2733 14.5333 15.9067 15.5 16.84C16.6333 17.9733 17.35 18.74 17.65 19.14C18.05 19.6733 18.2167 20.09 18.15 20.39C18.0833 20.69 17.7833 21.1067 17.25 21.64L16.7 22.24L17.25 22.79C17.65 23.19 17.9833 23.4067 18.25 23.44L18.65 23.59L19.7 23.39C21.1333 23.1233 22.2667 23.09 23.1 23.29L23.7 23.44L25.5 22.84H27.75L30.95 23.54L31.3 23.44C31.6 23.3733 31.9333 23.1567 32.3 22.79L32.9 22.24L32.3 21.64C31.8 21.1067 31.5167 20.69 31.45 20.39C31.3833 20.09 31.55 19.6733 31.95 19.14C32.25 18.74 32.95 17.9733 34.05 16.84L34.9 15.99C35.6 15.29 36.0833 14.8567 36.35 14.69C36.75 14.4567 37.1583 14.415 37.575 14.565C37.9917 14.715 38.5667 15.1233 39.3 15.79C39.7667 16.2233 40.7333 17.1733 42.2 18.64L45.6 22.04C47 23.44 47.9 24.3733 48.3 24.84C48.9333 25.54 49.3167 26.0983 49.45 26.515C49.5833 26.9317 49.5167 27.34 49.25 27.74C49.05 28.0067 48.5833 28.49 47.85 29.19L47 30.04C45.4667 31.5733 44.6167 32.3733 44.45 32.44C44.0833 32.5733 43.75 32.59 43.45 32.49C43.15 32.39 42.8 32.14 42.4 31.74L41.8 31.19L40.95 32.04C40.4167 32.5733 40.1083 32.9317 40.025 33.115C39.9417 33.2983 39.9 33.69 39.9 34.29C39.9 34.89 39.8583 35.3983 39.775 35.815C39.6917 36.2317 39.5333 36.6567 39.3 37.09L38.95 37.74L39.3 38.19C39.8 38.8567 40.0167 39.59 39.95 40.39C39.8833 41.19 39.575 41.8733 39.025 42.44C38.475 43.0067 37.7833 43.29 36.95 43.29H36.3L36.25 43.59C36.1167 44.4233 35.8167 45.0317 35.35 45.415C34.8833 45.7983 34.2333 46.0233 33.4 46.09L32.4 46.14V46.29C32.4 46.7567 32.1667 47.215 31.7 47.665C31.2333 48.115 30.675 48.4233 30.025 48.59C29.375 48.7567 28.8 48.74 28.3 48.54L27.95 48.34L27.7 48.84C27.4333 49.44 27.0333 49.8983 26.5 50.215C25.9667 50.5317 25.3833 50.6817 24.75 50.665C24.1167 50.6483 23.5333 50.4567 23 50.09L22.6 49.79L22.05 50.34C21.55 50.8067 21 51.1233 20.4 51.29C19.8 51.4567 19.2333 51.44 18.7 51.24ZM20.25 49.59C20.5833 49.3567 20.9 49.0733 21.2 48.74L21.9 48.09L21.95 47.59C22.0167 46.99 21.8417 46.5817 21.425 46.365C21.0083 46.1483 20.5167 46.1733 19.95 46.44C19.3833 46.7067 18.9333 47.1567 18.6 47.79C18.4 48.1567 18.375 48.515 18.525 48.865C18.675 49.215 18.9167 49.465 19.25 49.615C19.5833 49.765 19.9167 49.7567 20.25 49.59ZM25.35 48.94C25.55 48.8733 25.7333 48.74 25.9 48.54C26.0667 48.34 26.1833 48.1317 26.25 47.915C26.3167 47.6983 26.325 47.4983 26.275 47.315C26.225 47.1317 26.0833 46.8983 25.85 46.615C25.6167 46.3317 25.1833 45.8733 24.55 45.24L22.95 43.59V43.24C22.95 43.0067 23.025 42.8067 23.175 42.64C23.325 42.4733 23.5167 42.39 23.75 42.39H24.15L26.35 44.59C26.9833 45.2233 27.7167 45.9233 28.55 46.69L28.75 46.89C29.0167 47.0233 29.35 47.0317 29.75 46.915C30.15 46.7983 30.4167 46.6233 30.55 46.39C30.75 46.0233 30.8417 45.7233 30.825 45.49C30.8083 45.2567 30.6167 44.9233 30.25 44.49C29.9833 44.19 29.3833 43.5567 28.45 42.59C27.6167 41.7567 27.0833 41.2067 26.85 40.94C26.5167 40.5733 26.3333 40.315 26.3 40.165C26.2667 40.015 26.2917 39.8483 26.375 39.665C26.4583 39.4817 26.55 39.365 26.65 39.315C26.75 39.265 26.9167 39.24 27.15 39.24H27.45L29.95 41.74C30.85 42.64 31.4667 43.24 31.8 43.54C32.2 43.94 32.5 44.19 32.7 44.29C32.9 44.39 33.1333 44.44 33.4 44.44C33.6667 44.44 33.9167 44.315 34.15 44.065C34.3833 43.815 34.5417 43.515 34.625 43.165C34.7083 42.815 34.6667 42.5233 34.5 42.29C34.4667 42.2233 34.1 41.8233 33.4 41.09L32.1 39.79C31.2333 38.9233 30.6833 38.3733 30.45 38.14C30.1167 37.7733 29.925 37.515 29.875 37.365C29.825 37.215 29.85 37.0567 29.95 36.89C30.15 36.59 30.4167 36.44 30.75 36.44H31.05L33.5 38.84C35.2 40.54 36.1333 41.4067 36.3 41.44C36.6333 41.6067 36.9667 41.64 37.3 41.54C37.6333 41.44 37.9 41.2317 38.1 40.915C38.3 40.5983 38.3667 40.2567 38.3 39.89L38.25 39.49L27.55 28.79L26.75 29.44L25.95 30.04L26 30.39C26.0667 30.6567 26.1 31.09 26.1 31.69V32.69L25.8 33.34C25.4333 34.0733 24.9333 34.6567 24.3 35.09C23.6667 35.5233 23.0833 35.6733 22.55 35.54C22.2167 35.4733 21.925 35.265 21.675 34.915C21.425 34.565 20.9667 33.7233 20.3 32.39L19 29.79V29.09C19 28.5233 19.1 28.0733 19.3 27.74C19.5 27.4067 19.9667 26.8733 20.7 26.14L22 24.84H21.5C20.9667 24.84 20.4833 24.9067 20.05 25.04C19.0833 25.2067 18.35 25.2317 17.85 25.115C17.35 24.9983 16.8167 24.6567 16.25 24.09L15.5 23.44L9 29.94L9.9 30.89C10.4667 31.49 10.85 31.9817 11.05 32.365C11.25 32.7483 11.35 33.2067 11.35 33.74V34.49L11.5 34.44C12.2333 34.14 13 34.2067 13.8 34.64C14.6 35.0733 15.1167 35.69 15.35 36.49L15.4 36.79L16.2 36.84C17.1667 36.9067 17.925 37.2983 18.475 38.015C19.025 38.7317 19.2 39.5733 19 40.54L18.95 40.89L19.4 41.09C19.9333 41.29 20.3583 41.6483 20.675 42.165C20.9917 42.6817 21.15 43.2567 21.15 43.89V44.54H21.35C21.9167 44.54 22.4417 44.8567 22.925 45.49C23.4083 46.1233 23.65 46.8233 23.65 47.59V48.44L23.9 48.64C24.1667 48.84 24.4083 48.9567 24.625 48.99C24.8417 49.0233 25.0833 49.0067 25.35 48.94ZM16.4 47.19C16.6333 47.1233 17.1917 46.6483 18.075 45.765C18.9583 44.8817 19.4167 44.34 19.45 44.14C19.5833 43.7067 19.475 43.3067 19.125 42.94C18.775 42.5733 18.3667 42.44 17.9 42.54C17.6333 42.6067 17.0917 43.0317 16.275 43.815C15.4583 44.5983 14.9833 45.1567 14.85 45.49L14.7 45.89L14.8 46.29C14.9667 46.8233 15.3667 47.14 16 47.24C16.1333 47.24 16.2667 47.2233 16.4 47.19ZM12.85 44.74C12.9833 44.7067 13.6583 44.09 14.875 42.89C16.0917 41.69 16.825 40.9317 17.075 40.615C17.325 40.2983 17.425 39.965 17.375 39.615C17.325 39.265 17.1667 38.9817 16.9 38.765C16.6333 38.5483 16.3 38.4567 15.9 38.49L15.5 38.54L13.35 40.69C12.5167 41.5233 11.9667 42.09 11.7 42.39C11.3667 42.7567 11.1667 43.0233 11.1 43.19C11.0333 43.3567 11.0333 43.5733 11.1 43.84C11.2 44.2067 11.425 44.4817 11.775 44.665C12.125 44.8483 12.4833 44.8733 12.85 44.74ZM10.9 40.59C11.2 40.4233 11.7333 39.9317 12.5 39.115C13.2667 38.2983 13.6667 37.79 13.7 37.59C13.8 37.0233 13.675 36.64 13.325 36.44C12.975 36.24 12.5083 36.2317 11.925 36.415C11.3417 36.5983 10.7833 36.9233 10.25 37.39C9.71667 37.8567 9.33333 38.39 9.1 38.99C8.96667 39.3567 8.975 39.6983 9.125 40.015C9.275 40.3317 9.525 40.5483 9.875 40.665C10.225 40.7817 10.5667 40.7567 10.9 40.59ZM38 35.89C38.1333 35.5233 38.2 34.9567 38.2 34.19V32.99L38.45 32.39C38.65 31.99 39.05 31.49 39.65 30.89L40.6 29.94L37.3 26.69L34.05 23.44L33.4 24.09C32.7667 24.69 32.1917 25.04 31.675 25.14C31.1583 25.24 30.3 25.1567 29.1 24.89C27.9 24.6233 27 24.49 26.4 24.49C25.7333 24.49 25.1333 24.6483 24.6 24.965C24.0667 25.2817 23.3667 25.8567 22.5 26.69C21.7 27.4567 21.2 27.9817 21 28.265C20.8 28.5483 20.7 28.8233 20.7 29.09C20.7 29.2567 21.0667 30.0983 21.8 31.615C22.5333 33.1317 22.95 33.89 23.05 33.89C23.3167 33.89 23.575 33.7067 23.825 33.34C24.075 32.9733 24.25 32.5317 24.35 32.015C24.45 31.4983 24.4333 31.04 24.3 30.64V30.59C24.1333 30.19 24.0583 29.8983 24.075 29.715C24.0917 29.5317 24.2167 29.3233 24.45 29.09C24.65 28.89 25.1 28.5233 25.8 27.99L26.35 27.54C26.7167 27.24 26.9833 27.0567 27.15 26.99C27.4167 26.89 27.7 26.915 28 27.065C28.3 27.215 28.7333 27.5567 29.3 28.09C29.6667 28.4567 30.4333 29.2233 31.6 30.39L32.95 31.74C34.2167 33.04 35.3167 34.1483 36.25 35.065C37.1833 35.9817 37.675 36.4317 37.725 36.415C37.775 36.3983 37.8667 36.2233 38 35.89ZM11 25.44L16.35 20.14L12.35 16.14L1.65 26.84L3.65 28.79C4.08333 29.2567 4.55 29.7233 5.05 30.19L5.65 30.79C5.71667 30.79 7.5 29.0067 11 25.44ZM45.95 28.79L47.9 26.84L37.2 16.14L33.2 20.14L38.55 25.44C39.75 26.6733 41 27.94 42.3 29.24L43.9 30.79C43.9333 30.79 44.6167 30.1233 45.95 28.79ZM16.3 12.84C13.6667 10.2733 12.3167 8.87332 12.25 8.63999C12.2167 8.30666 12.3083 8.03165 12.525 7.81499C12.7417 7.59832 12.9833 7.52332 13.25 7.58999C13.4167 7.65665 14.825 9.00666 17.475 11.64C20.125 14.2733 21.4667 15.6733 21.5 15.84C21.5667 16.14 21.5167 16.3817 21.35 16.565C21.1833 16.7483 20.9333 16.84 20.6 16.84H20.25L16.3 12.84ZM27.75 16.59C27.5833 16.4233 27.5 16.2233 27.5 15.99V15.59L31.5 11.64C34.1 9.00666 35.525 7.65665 35.775 7.58999C36.025 7.52332 36.2667 7.60666 36.5 7.83999C36.7333 8.07332 36.8167 8.31499 36.75 8.56499C36.6833 8.81499 35.3333 10.24 32.7 12.84L28.75 16.84H28.35C28.1167 16.84 27.9167 16.7567 27.75 16.59ZM23.95 14.84C23.8167 14.7067 23.7333 14.54 23.7 14.34C23.6667 14.04 23.65 13.44 23.65 12.54V1.88999L23.9 1.63999C24.1 1.43999 24.3333 1.35666 24.6 1.38999C24.8667 1.42332 25.0833 1.55666 25.25 1.78999L25.35 2.08999V14.49L25.1 14.79C24.7 15.1233 24.3167 15.14 23.95 14.84Z"
			fill="#F17425" />
	</g>
	<defs>
		<clipPath id="clip0_363_320">
			<rect width="49.5" height="51" fill="white" transform="matrix(1 0 0 -1 0.25 51.89)" />
		</clipPath>
	</defs>
</svg>
