<svg width="50" height="52" viewBox="0 0 50 52" fill="none" xmlns="http://www.w3.org/2000/svg">
	<g clip-path="url(#clip0_363_278)">
		<path
			d="M4.10488 50.5699C2.97154 50.3365 2.03821 49.7949 1.30488 48.9449C0.571545 48.0949 0.146545 47.1115 0.029878 45.9949C-0.0867886 44.8782 0.138211 43.8199 0.704878 42.8199C0.938211 42.4532 1.30488 42.0365 1.80488 41.5699C2.37154 41.0365 3.72154 39.8532 5.85488 38.0199L10.0549 34.3699L9.95488 34.0699C9.88821 33.6365 10.0882 33.1115 10.5549 32.4949C11.0215 31.8782 11.5882 31.3865 12.2549 31.0199C12.9215 30.6532 13.4382 30.5699 13.8049 30.7699L14.0549 30.9199L15.8549 29.3699L15.4549 28.7699C14.1549 26.6365 13.3549 24.2865 13.0549 21.7199C12.7549 19.1532 12.9549 16.6199 13.6549 14.1199C14.3549 11.6199 15.5049 9.40319 17.1049 7.46986C17.4715 7.03652 17.8299 6.83652 18.1799 6.86986C18.5299 6.90319 18.7049 7.15319 18.7049 7.61986C18.7049 7.71986 18.4215 8.13652 17.8549 8.86986C15.9549 11.3699 14.8049 14.0865 14.4049 17.0199C14.0382 19.7532 14.3549 22.4365 15.3549 25.0699C16.2882 27.6365 17.7549 29.8699 19.7549 31.7699C21.7882 33.7032 24.1382 35.0365 26.8049 35.7699C29.6715 36.5699 32.6215 36.6032 35.6549 35.8699C36.2882 35.7032 36.8132 35.6782 37.2299 35.7949C37.6465 35.9115 37.8215 36.0949 37.7549 36.3449C37.6882 36.5949 37.3549 36.8199 36.7549 37.0199C34.4549 37.7865 31.9549 38.0115 29.2549 37.6949C26.5549 37.3782 24.1215 36.5532 21.9549 35.2199L21.3549 34.9199C21.2882 34.9199 21.0215 35.2032 20.5549 35.7699L19.8049 36.6199L19.9549 36.9199C20.1549 37.3199 20.1799 37.6865 20.0299 38.0199C19.8799 38.3532 19.4382 38.8699 18.7049 39.5699C18.1382 40.1365 17.7299 40.4865 17.4799 40.6199C17.2299 40.7532 16.9382 40.7865 16.6049 40.7199L16.3049 40.6699L12.9549 44.5699C12.6882 44.8365 12.5132 45.0032 12.4299 45.0699C12.3465 45.1365 12.2382 45.1699 12.1049 45.1699H12.0549C11.6215 45.1699 11.4049 44.9365 11.4049 44.4699V44.1199L12.3549 43.0699C12.9549 42.3365 13.2549 41.9532 13.2549 41.9199L12.6049 41.2199C12.0715 40.6865 11.5382 40.1699 11.0049 39.6699L8.75488 37.4199L8.60488 37.5699C7.13821 38.7365 5.67155 40.0032 4.20488 41.3699C2.73821 42.7365 1.92154 43.6032 1.75488 43.9699L1.50488 44.5199V46.4699L1.75488 47.0699C1.95488 47.4365 2.22988 47.7949 2.57988 48.1449C2.92988 48.4949 3.28821 48.7532 3.65488 48.9199L4.20488 49.2199H6.15488L6.75488 48.9199C7.18821 48.7199 7.75488 48.2532 8.45488 47.5199C9.25488 46.7199 9.72155 46.3199 9.85488 46.3199C9.98821 46.3199 10.1299 46.4032 10.2799 46.5699C10.4299 46.7365 10.5049 46.9032 10.5049 47.0699V47.3699L9.60488 48.4199C7.93821 50.2865 6.10488 51.0032 4.10488 50.5699ZM15.9049 34.7699L13.1549 32.0199L12.3049 32.9199L11.4049 33.7699L14.1549 36.5199L16.9049 39.3199L17.8049 38.4199L18.6549 37.5199L15.9049 34.7699ZM19.9549 34.2199L20.1549 34.0199L19.8049 33.7699C19.5382 33.5699 19.0632 33.1282 18.3799 32.4449C17.6965 31.7615 17.2715 31.3032 17.1049 31.0699L17.0049 30.9699C16.8382 30.7365 16.7215 30.6282 16.6549 30.6449C16.5882 30.6615 16.3882 30.8032 16.0549 31.0699L15.1049 31.9199L18.7549 35.5699L19.3049 35.0199C19.7049 34.6199 19.9215 34.3532 19.9549 34.2199ZM39.5549 35.3699C39.3215 35.1365 39.2549 34.9199 39.3549 34.7199C39.4549 34.5199 39.7882 34.2365 40.3549 33.8699C43.0882 32.1699 45.1715 29.9199 46.6049 27.1199C48.0049 24.4199 48.6382 21.5532 48.5049 18.5199C48.3715 15.3865 47.4215 12.4865 45.6549 9.81986C43.8882 7.15319 41.5549 5.15319 38.6549 3.81986C35.8549 2.51986 32.9215 1.98652 29.8549 2.21986C26.6549 2.51986 23.7882 3.60319 21.2549 5.46986C20.8882 5.76986 20.5549 5.88652 20.2549 5.81986C19.9549 5.75319 19.8049 5.54486 19.8049 5.19486C19.8049 4.84486 20.2299 4.39486 21.0799 3.84486C21.9299 3.29486 22.9549 2.75319 24.1549 2.21986C25.4549 1.68652 26.6215 1.31986 27.6549 1.11986C31.3215 0.386524 34.8382 0.686523 38.2049 2.01986C41.3715 3.28652 44.0049 5.29486 46.1049 8.04486C48.2049 10.7949 49.4549 13.8699 49.8549 17.2699C50.2549 20.8699 49.6049 24.3532 47.9049 27.7199C47.2715 28.9865 46.3382 30.3199 45.1049 31.7199C43.9382 33.0199 42.8215 34.0365 41.7549 34.7699C40.6549 35.5365 39.9215 35.7365 39.5549 35.3699ZM29.3049 33.5199C26.4715 33.1199 24.0549 32.0365 22.0549 30.2699C20.1882 28.6699 18.8382 26.6532 18.0049 24.2199C17.1715 21.8865 16.9382 19.4865 17.3049 17.0199C17.6715 14.4865 18.6215 12.2365 20.1549 10.2699C21.7882 8.16986 23.9549 6.65319 26.6549 5.71986C28.6882 5.01986 30.8382 4.81986 33.1049 5.11986C35.2382 5.41986 37.2549 6.14486 39.1549 7.29486C41.0549 8.44486 42.5715 9.85319 43.7049 11.5199C44.9049 13.3199 45.5382 15.2032 45.6049 17.1699C45.6049 17.6699 45.5049 17.9699 45.3049 18.0699C45.1049 18.1699 44.8799 18.0782 44.6299 17.7949C44.3799 17.5115 44.1882 17.1032 44.0549 16.5699C43.5215 14.1365 42.4049 12.0532 40.7049 10.3199C39.1382 8.65319 37.2549 7.49486 35.0549 6.84486C32.8549 6.19486 30.6549 6.13652 28.4549 6.66986C26.1215 7.20319 24.0715 8.34486 22.3049 10.0949C20.5382 11.8449 19.3715 13.9032 18.8049 16.2699C18.2382 18.6365 18.3549 21.0032 19.1549 23.3699L19.2549 23.6199C19.3549 24.0199 19.4465 24.2782 19.5299 24.3949C19.6132 24.5115 19.7215 24.5782 19.8549 24.5949C19.9882 24.6115 20.2715 24.5699 20.7049 24.4699L21.2549 24.3699L21.3549 23.1699L20.9549 22.6699C20.0549 21.5365 19.6132 20.3115 19.6299 18.9949C19.6465 17.6782 20.0632 16.5865 20.8799 15.7199C21.6965 14.8532 22.7549 14.4532 24.0549 14.5199C24.5882 14.5199 25.1382 14.6782 25.7049 14.9949C26.2715 15.3115 26.7465 15.6949 27.1299 16.1449C27.5132 16.5949 27.7049 17.0199 27.7049 17.4199C27.7049 17.4532 27.7382 17.4865 27.8049 17.5199L28.3049 17.4699C28.5715 17.4365 28.7382 17.3865 28.8049 17.3199C28.8715 17.2532 28.9215 17.0865 28.9549 16.8199L29.0049 16.1699L28.5549 15.6199C27.6549 14.5199 27.2549 13.1199 27.3549 11.4199L27.4049 10.5199L27.7049 9.86986C28.1715 8.90319 28.8715 8.21986 29.8049 7.81986C30.7382 7.41986 31.6965 7.36986 32.6799 7.66986C33.6632 7.96986 34.4215 8.58652 34.9549 9.51986C35.4549 10.3532 35.6299 11.3699 35.4799 12.5699C35.3299 13.7699 34.9215 14.8032 34.2549 15.6699L33.8549 16.1699L33.9049 16.9199C33.9382 17.1532 33.9715 17.2949 34.0049 17.3449C34.0382 17.3949 34.1382 17.4199 34.3049 17.4199L35.0549 17.5199L35.1049 17.3699C35.4382 16.4365 35.9715 15.7199 36.7049 15.2199C37.4382 14.7199 38.2465 14.4782 39.1299 14.4949C40.0132 14.5115 40.8132 14.7865 41.5299 15.3199C42.2465 15.8532 42.7382 16.6032 43.0049 17.5699C43.2382 18.3365 43.2382 19.2365 43.0049 20.2699C42.7715 21.3032 42.3882 22.1032 41.8549 22.6699L41.4549 23.0699L41.5049 23.6699L41.6049 24.3199C41.6382 24.3532 41.8882 24.4199 42.3549 24.5199C42.8215 24.6199 43.0965 24.6699 43.1799 24.6699C43.2632 24.6699 43.4382 24.2449 43.7049 23.3949C43.9715 22.5449 44.1382 21.8199 44.2049 21.2199C44.2715 20.7532 44.4299 20.4032 44.6799 20.1699C44.9299 19.9365 45.1632 19.8782 45.3799 19.9949C45.5965 20.1115 45.7049 20.3865 45.7049 20.8199C45.7049 22.5865 45.2215 24.3365 44.2549 26.0699C43.3549 27.6699 42.1049 29.0949 40.5049 30.3449C38.9049 31.5949 37.1382 32.5032 35.2049 33.0699C33.2049 33.6365 31.2382 33.7865 29.3049 33.5199ZM30.7049 30.2199V28.3199L30.4549 27.8199C30.1882 27.2532 29.8465 26.8449 29.4299 26.5949C29.0132 26.3449 28.3382 26.1532 27.4049 26.0199L26.1549 25.7699L25.6549 26.2199C25.0882 26.7532 24.4549 27.0115 23.7549 26.9949C23.0549 26.9782 22.4382 26.7032 21.9049 26.1699L21.5049 25.8199L20.8549 25.8699C20.5882 25.9032 20.4549 25.9532 20.4549 26.0199C20.4549 26.0865 20.5549 26.2865 20.7549 26.6199L20.8049 26.7199C21.7382 28.1199 23.0215 29.3115 24.6549 30.2949C26.2882 31.2782 27.9715 31.8865 29.7049 32.1199L29.9049 32.1699C30.2382 32.2032 30.4549 32.2032 30.5549 32.1699C30.6549 32.1365 30.7132 32.0282 30.7299 31.8449C30.7465 31.6615 30.7382 31.2865 30.7049 30.7199V30.2199ZM34.6049 31.8199C36.0715 31.4532 37.4549 30.8282 38.7549 29.9449C40.0549 29.0615 41.1215 28.0032 41.9549 26.7699C42.2549 26.3699 42.4049 26.1282 42.4049 26.0449C42.4049 25.9615 42.2215 25.9032 41.8549 25.8699L41.4049 25.8199L40.9049 26.2199C40.3382 26.7532 39.6965 27.0115 38.9799 26.9949C38.2632 26.9782 37.6382 26.7032 37.1049 26.1699L36.7049 25.7699L35.4049 26.0199C34.4382 26.1865 33.7299 26.4032 33.2799 26.6699C32.8299 26.9365 32.5215 27.3449 32.3549 27.8949C32.1882 28.4449 32.1049 29.2699 32.1049 30.3699V30.4699C32.1049 31.2032 32.1382 31.6699 32.2049 31.8699C32.2715 32.1032 32.4715 32.2199 32.8049 32.2199C33.0049 32.2199 33.5382 32.1032 34.4049 31.8699L34.6049 31.8199ZM31.8549 26.0199C32.2215 25.6532 32.6132 25.3699 33.0299 25.1699C33.4465 24.9699 34.0215 24.8032 34.7549 24.6699L36.5049 24.3699L36.6049 23.1699L36.1549 22.6199C35.7882 22.1199 35.5132 21.6449 35.3299 21.1949C35.1465 20.7449 35.0382 20.2199 35.0049 19.6199L34.9049 19.0199L34.3549 18.8699L33.7549 18.7699L33.3549 19.1699C32.8215 19.7365 32.1382 20.0115 31.3049 19.9949C30.4715 19.9782 29.8382 19.6865 29.4049 19.1199L29.1049 18.7699L28.5049 18.8699L27.9049 19.0199L27.8549 19.4699C27.7549 20.2032 27.6132 20.8199 27.4299 21.3199C27.2465 21.8199 26.9882 22.2532 26.6549 22.6199L26.2049 23.0699L26.2549 23.8699C26.2882 24.1032 26.3549 24.2532 26.4549 24.3199C26.5549 24.3865 26.8549 24.4699 27.3549 24.5699L27.7049 24.6199C28.6382 24.7865 29.3882 25.0032 29.9549 25.2699C30.5215 25.5365 30.9382 25.8699 31.2049 26.2699L31.2549 26.3199C31.3215 26.4199 31.3715 26.4699 31.4049 26.4699C31.4382 26.4699 31.5382 26.3699 31.7049 26.1699L31.8549 26.0199ZM24.7049 22.4699C25.3049 22.0699 25.7465 21.5699 26.0299 20.9699C26.3132 20.3699 26.4549 19.6199 26.4549 18.7199C26.4549 17.9199 26.1965 17.2532 25.6799 16.7199C25.1632 16.1865 24.5465 15.9115 23.8299 15.8949C23.1132 15.8782 22.4882 16.1282 21.9549 16.6449C21.4215 17.1615 21.1382 17.8365 21.1049 18.6699C21.0715 19.4365 21.2299 20.1865 21.5799 20.9199C21.9299 21.6532 22.3965 22.1865 22.9799 22.5199C23.5632 22.8532 24.1382 22.8365 24.7049 22.4699ZM40.1049 22.3199C40.8049 21.8532 41.2799 21.2282 41.5299 20.4449C41.7799 19.6615 41.8049 18.8949 41.6049 18.1449C41.4049 17.3949 41.0299 16.8032 40.4799 16.3699C39.9299 15.9365 39.2715 15.7949 38.5049 15.9449C37.7382 16.0949 37.1715 16.4699 36.8049 17.0699C36.4382 17.6699 36.3049 18.4365 36.4049 19.3699C36.5049 20.2032 36.7465 20.9115 37.1299 21.4949C37.5132 22.0782 37.9715 22.4532 38.5049 22.6199C39.0382 22.7865 39.5715 22.6865 40.1049 22.3199ZM32.4549 15.3699C32.9882 14.9699 33.3799 14.5199 33.6299 14.0199C33.8799 13.5199 34.0215 12.8699 34.0549 12.0699L34.1049 11.0199L33.9049 10.5699C33.5049 9.70319 32.8882 9.17819 32.0549 8.99486C31.2215 8.81152 30.4632 8.97819 29.7799 9.49486C29.0965 10.0115 28.7549 10.7532 28.7549 11.7199C28.7549 12.6865 28.9465 13.5199 29.3299 14.2199C29.7132 14.9199 30.1882 15.3865 30.7549 15.6199C31.3215 15.8532 31.8882 15.7699 32.4549 15.3699Z"
			fill="#F17425" />
	</g>
	<defs>
		<clipPath id="clip0_363_278">
			<rect width="49.95" height="51" fill="white" transform="matrix(1 0 0 -1 0.0200195 51.2198)" />
		</clipPath>
	</defs>
</svg>
