<svg width="29" height="29" viewBox="0 0 29 29" fill="none" xmlns="http://www.w3.org/2000/svg">
	<g clip-path="url(#clip0_363_949)">
		<path
			d="M28.5996 11.9332V24.3372C28.5996 25.0278 28.357 25.6158 27.8716 26.1012C27.3863 26.5865 26.7983 26.8385 26.1076 26.8572H3.09163C2.41963 26.8572 1.83163 26.6052 1.32763 26.1012C0.823633 25.5972 0.580966 25.0092 0.599633 24.3372V11.9332C1.0663 12.4372 1.58897 12.8945 2.16763 13.3052C5.9383 15.8625 8.53297 17.6545 9.95163 18.6812C10.549 19.1292 11.025 19.4745 11.3796 19.7172C11.7343 19.9598 12.229 20.2118 12.8636 20.4732C13.4983 20.7345 14.0676 20.8558 14.5716 20.8372H14.6276C15.1503 20.8372 15.7196 20.7158 16.3356 20.4732C16.9516 20.2305 17.4463 19.9785 17.8196 19.7172C18.193 19.4558 18.669 19.1105 19.2476 18.6812C21.021 17.4118 23.6156 15.6198 27.0316 13.3052C27.629 12.8945 28.1516 12.4372 28.5996 11.9332ZM28.5996 7.34118C28.5996 8.16251 28.3476 8.94651 27.8436 9.69318C27.3396 10.4398 26.705 11.0838 25.9396 11.6252C22.0196 14.3505 19.5743 16.0398 18.6036 16.6932L17.1196 17.7852C16.8956 17.9532 16.625 18.1212 16.3076 18.2892C15.9903 18.4572 15.6916 18.5972 15.4116 18.7092C15.1316 18.8212 14.8703 18.8678 14.6276 18.8492H14.5716C14.3476 18.8492 14.0956 18.8025 13.8156 18.7092C13.5356 18.6158 13.237 18.4758 12.9196 18.2892L12.0796 17.7852C11.837 17.6358 11.557 17.4305 11.2396 17.1692C10.9223 16.9078 10.7076 16.7492 10.5956 16.6932L6.47963 13.8652C4.68763 12.6332 3.62363 11.8865 3.28763 11.6252C2.6343 11.1958 2.02763 10.5985 1.46763 9.83318C0.907633 9.06784 0.618299 8.34918 0.599633 7.67718C0.599633 6.87451 0.8143 6.20251 1.24363 5.66118C1.67297 5.11984 2.28897 4.84918 3.09163 4.84918H26.1076C26.7796 4.84918 27.3676 5.09184 27.8716 5.57718C28.3756 6.06251 28.6183 6.65051 28.5996 7.34118Z"
			fill="currentColor" />
	</g>
	<defs>
		<clipPath id="clip0_363_949">
			<rect width="28.02" height="28" fill="white" transform="matrix(1 0 0 -1 0.589844 28.0884)" />
		</clipPath>
	</defs>
</svg>
