<svg width="58" height="52" viewBox="0 0 58 52" fill="none" xmlns="http://www.w3.org/2000/svg">
	<g clip-path="url(#clip0_363_306)">
		<path
			d="M26.1125 51.5245C24.712 51.2578 23.5032 50.8161 22.4862 50.1993C21.4692 49.5825 20.7523 48.8741 20.3355 48.0739C19.9187 47.2738 19.877 46.4737 20.2104 45.6735L20.4105 45.2735L14.9086 39.8225L9.4567 34.3716L8.20627 34.3216C6.17223 34.1882 4.42163 33.7215 2.95445 32.9213C1.62066 32.1545 0.728684 31.2377 0.278529 30.1708C-0.171627 29.104 -0.0799288 28.1205 0.553624 27.2203C1.25387 26.2202 2.5043 25.5034 4.30492 25.07L4.60502 24.9699V21.1193H4.05483C3.68804 21.1193 3.35459 21.0276 3.05449 20.8442C2.75438 20.6609 2.52097 20.4192 2.35425 20.1191L2.10416 19.619V11.7677L2.30423 11.2176C2.40426 10.8842 2.62101 10.5424 2.95445 10.1924C3.2879 9.84232 3.62135 9.60062 3.9548 9.46726L4.45497 9.21722H13.4081L14.0583 9.51727C14.6252 9.81732 15.0086 10.1257 15.2087 10.4424C15.4088 10.7591 15.5588 11.3009 15.6588 12.0677C15.6922 12.7012 15.7255 13.9014 15.7589 15.6683V19.619L15.5088 20.1191C15.3421 20.4192 15.1087 20.6609 14.8086 20.8442C14.5085 21.0276 14.175 21.1193 13.8082 21.1193H13.208V24.9699L13.5581 25.07C15.0253 25.4367 16.1257 26.0535 16.8593 26.9203C17.5595 27.7204 17.8346 28.6122 17.6845 29.5957C17.5345 30.5792 16.9926 31.4544 16.059 32.2212C15.092 33.0547 13.8082 33.6381 12.2077 33.9715L11.5074 34.1215L21.4108 44.0232L22.1111 43.5232C22.5112 43.2564 23.0281 42.9897 23.6616 42.723L24.5619 42.373V40.4726L24.6119 38.5223H24.0117C23.3115 38.5223 22.778 38.2389 22.4112 37.6721L22.1611 37.3221L22.0611 29.0707L22.3612 28.4705C22.5946 27.8704 22.8947 27.4454 23.2615 27.1953C23.6283 26.9453 24.2285 26.7703 25.0621 26.6702C25.829 26.6036 27.1128 26.5702 28.9134 26.5702C30.7141 26.5702 31.9812 26.6036 32.7147 26.6702C33.5484 26.7703 34.1652 26.9536 34.5654 27.2203C34.8655 27.4204 35.1656 27.8204 35.4657 28.4205L35.7158 29.0206V37.1721L35.4657 37.5721C35.0656 38.2056 34.5154 38.5223 33.8151 38.5223H33.2149L33.2649 40.4726V42.373L34.2653 42.773C34.8655 43.0064 35.3823 43.2731 35.8158 43.5732L36.416 44.0232L46.3195 34.1215L45.6192 33.9715C44.0187 33.6381 42.7349 33.0547 41.7679 32.2212C40.8342 31.4544 40.2924 30.5792 40.1423 29.5957C39.9923 28.6122 40.2674 27.7204 40.9676 26.9203C41.7012 26.0535 42.8016 25.4367 44.2687 25.07L44.6189 24.9699V21.1193H44.0187C43.6519 21.1193 43.3184 21.0276 43.0183 20.8442C42.7182 20.6609 42.4848 20.4192 42.3181 20.1191L42.068 19.619V15.7183C42.068 13.9847 42.1013 12.7845 42.168 12.1177C42.2347 11.3176 42.3764 10.7591 42.5932 10.4424C42.8099 10.1257 43.2017 9.81732 43.7686 9.51727L44.4188 9.21722H53.3719L53.8721 9.46726C54.2055 9.60062 54.539 9.84232 54.8724 10.1924C55.2059 10.5424 55.4226 10.8842 55.5226 11.2176L55.7227 11.7677V19.619L55.4726 20.1191C55.3059 20.4192 55.0725 20.6609 54.7724 20.8442C54.4723 21.0276 54.1388 21.1193 53.772 21.1193H53.2218V24.9699L53.5219 25.07C55.3226 25.5034 56.573 26.2202 57.2732 27.2203C57.9068 28.1205 57.9985 29.104 57.5483 30.1708C57.0982 31.2377 56.2062 32.1545 54.8724 32.9213C53.4052 33.7215 51.6546 34.1882 49.6206 34.3216L48.3702 34.3716L42.9183 39.8225L37.4164 45.2735L37.6164 45.6735C37.9165 46.407 37.8999 47.1488 37.5664 47.8989C37.233 48.649 36.6411 49.3242 35.7908 49.9243C34.9405 50.5244 33.8985 50.9911 32.6647 51.3245L31.4643 51.6246L29.2636 51.6746H27.3629C26.8627 51.6412 26.4459 51.5912 26.1125 51.5245ZM31.5643 49.9743C32.6314 49.7742 33.5567 49.4658 34.3403 49.0491C35.1239 48.6324 35.6741 48.1573 35.9909 47.6239C36.3077 47.0904 36.3327 46.557 36.0659 46.0236C35.8992 45.6902 35.4657 45.2818 34.7655 44.7984C34.0652 44.315 33.5817 44.0732 33.315 44.0732C33.2483 44.0732 33.2149 44.3566 33.2149 44.9234C33.2149 45.6235 33.0315 46.2153 32.6647 46.6987C32.2979 47.1821 31.8311 47.4822 31.2642 47.5989C30.6974 47.7155 30.1138 47.6239 29.5136 47.3238L28.9134 47.0238L28.3132 47.3238C27.6797 47.6239 27.0795 47.7155 26.5126 47.5989C25.9457 47.4822 25.4872 47.1821 25.1371 46.6987C24.787 46.2153 24.6119 45.6068 24.6119 44.8734C24.6119 44.34 24.5703 44.0732 24.4869 44.0732C24.4035 44.0732 24.1034 44.2149 23.5866 44.4983C23.0697 44.7817 22.6946 45.0067 22.4612 45.1734C21.6943 45.8402 21.4192 46.5153 21.6359 47.1988C21.8527 47.8822 22.4529 48.4907 23.4365 49.0241C24.4202 49.5575 25.6123 49.9076 27.0128 50.0743C28.5133 50.2743 30.0305 50.241 31.5643 49.9743ZM27.8131 45.8235L28.1132 45.5235L28.2132 41.6228L28.2632 37.7722L28.5633 37.5721L28.9134 37.4221L29.2636 37.5721L29.5637 37.7722L29.6137 41.6228L29.7137 45.5235L30.0138 45.8235C30.4806 46.1569 30.9308 46.1569 31.3643 45.8235L31.6644 45.5735V38.3223C31.6644 35.8218 31.6811 34.0715 31.7144 33.0713C31.7144 31.9712 31.7394 31.246 31.7894 30.896C31.8394 30.5459 31.9311 30.3375 32.0645 30.2709C32.1979 30.2042 32.3646 30.1792 32.5647 30.1958C32.7648 30.2125 32.9148 30.2709 33.0149 30.3709L33.2149 30.5209V33.5714C33.2149 34.7383 33.2316 35.5218 33.2649 35.9218C33.2649 36.4219 33.3066 36.7303 33.39 36.847C33.4733 36.9637 33.6151 37.0054 33.8151 36.972L34.1152 36.922L34.1652 33.1214V29.2707L33.9652 28.9206C33.7985 28.6206 33.5484 28.4122 33.2149 28.2955C32.8815 28.1788 32.3646 28.1205 31.6644 28.1205H30.464L30.514 28.5706C30.5807 28.9706 30.6474 29.5541 30.7141 30.3209L30.8641 31.5711L30.3639 32.5212C29.9971 33.188 29.7137 33.6381 29.5136 33.8715C29.3136 34.1049 29.1052 34.2215 28.8884 34.2215C28.6717 34.2215 28.4966 34.1549 28.3632 34.0215C28.2299 33.8882 27.9964 33.4881 27.663 32.8213L26.9628 31.5711L27.1128 30.2208C27.1795 29.3874 27.2462 28.8206 27.3129 28.5206L27.3629 28.1205H26.1625C25.4622 28.1205 24.9454 28.1788 24.6119 28.2955C24.2785 28.4122 24.0284 28.6206 23.8617 28.9206L23.6616 29.2707V33.1214L23.7116 36.922L24.0117 36.972C24.2118 37.0054 24.3535 36.9637 24.4369 36.847C24.5202 36.7303 24.5619 36.4219 24.5619 35.9218C24.5953 35.5218 24.6119 34.7383 24.6119 33.5714V30.5209L24.812 30.3709C24.9121 30.2709 25.0621 30.2125 25.2622 30.1958C25.4622 30.1792 25.629 30.2042 25.7623 30.2709C25.8957 30.3375 25.9874 30.5459 26.0374 30.896C26.0875 31.246 26.1125 31.9712 26.1125 33.0713C26.1458 34.0715 26.1625 35.8218 26.1625 38.3223V45.5735L26.4626 45.8235C26.9294 46.1569 27.3796 46.1569 27.8131 45.8235ZM11.5574 32.5713C13.158 32.2379 14.3751 31.7378 15.2087 31.071C16.0423 30.4042 16.3758 29.7041 16.209 28.9706C16.0423 28.2372 15.3587 27.5871 14.1583 27.0203L13.308 26.5702L13.208 27.5704L13.158 28.6206L12.8079 29.1207C12.4411 29.6541 11.9326 29.9958 11.2823 30.1458C10.6321 30.2959 10.0236 30.2042 9.4567 29.8708L8.90651 29.5707L8.35632 29.8708C7.78946 30.2042 7.18925 30.2959 6.5557 30.1458C5.92215 29.9958 5.42197 29.6541 5.05518 29.1207L4.65504 28.6206L4.55501 26.5702L3.70471 27.0203C2.5043 27.5871 1.82906 28.2538 1.67901 29.0206C1.52896 29.7874 1.87075 30.5042 2.70437 31.171C3.53799 31.8378 4.75508 32.3045 6.35563 32.5713L7.35598 32.7213C7.62274 32.788 8.30631 32.7963 9.40669 32.7463C10.5071 32.6963 11.224 32.6379 11.5574 32.5713ZM51.7213 32.5212C53.3219 32.1545 54.5223 31.6378 55.3226 30.971C56.1228 30.3042 56.4063 29.5957 56.1729 28.8456C55.9394 28.0955 55.1892 27.437 53.9221 26.8703L53.2218 26.5702V27.5704L53.1718 28.5706L52.7717 29.1207C52.4049 29.6541 51.9047 29.9958 51.2712 30.1458C50.6376 30.2959 50.0374 30.2042 49.4705 29.8708L48.9204 29.5707L48.3702 29.8708C47.77 30.2042 47.1948 30.3209 46.6446 30.2208C46.0944 30.1208 45.6275 29.8375 45.2441 29.3707C44.8606 28.904 44.6522 28.3039 44.6189 27.5704L44.5188 26.5702L43.6685 27.0203C42.4681 27.5871 41.7929 28.2538 41.6428 29.0206C41.4928 29.7874 41.8429 30.5042 42.6932 31.171C43.5435 31.8378 44.7522 32.3045 46.3195 32.5713L46.8196 32.6713C47.1197 32.7046 47.3031 32.7213 47.3698 32.7213C47.6699 32.7546 48.3702 32.7463 49.4705 32.6963C50.5709 32.6463 51.3212 32.5879 51.7213 32.5212ZM7.60606 28.5706C7.80613 28.4705 7.94785 28.3122 8.03121 28.0955C8.11457 27.8788 8.15625 27.4704 8.15625 26.8703C8.1896 26.3702 8.20627 25.4367 8.20627 24.0698V20.4692L8.40634 20.3191C8.53972 20.1858 8.73979 20.1191 9.00655 20.1191C9.27331 20.1191 9.44837 20.1858 9.53173 20.3191C9.61509 20.4525 9.65677 21.7194 9.65677 24.1198C9.65677 25.6201 9.69012 26.7036 9.75681 27.3704C9.8235 28.0371 9.94854 28.4539 10.1319 28.6206C10.3153 28.7873 10.6238 28.7873 11.0573 28.6206C11.224 28.5539 11.349 28.4539 11.4324 28.3205C11.5157 28.1872 11.5741 27.8954 11.6074 27.4454C11.6408 26.9953 11.6575 26.2368 11.6575 25.17L11.7075 20.8192V16.3184C11.7075 15.2183 11.7242 14.4431 11.7575 13.993C11.7908 13.543 11.8409 13.2512 11.9076 13.1179C11.9742 12.9845 12.0743 12.8845 12.2077 12.8178L12.5078 12.6178L13.158 13.0179L13.208 16.2184L13.308 19.419L13.4581 19.519C13.7248 19.6524 13.8999 19.669 13.9833 19.569C14.0666 19.469 14.125 19.1189 14.1583 18.5188C14.1917 18.0187 14.2083 17.0186 14.2083 15.5183V11.7176L13.258 10.7675H10.457L10.5071 11.1676C10.5738 11.4676 10.6404 12.0344 10.7071 12.8678L10.8572 14.1181L10.1569 15.4183C9.79015 16.0851 9.49005 16.5185 9.25663 16.7185C9.02322 16.9185 8.78981 16.9185 8.55639 16.7185C8.32298 16.5185 8.02287 16.0851 7.65608 15.4183L7.00586 14.1181L7.10589 12.8678L7.35598 10.7675H4.60502L4.10485 11.2176L3.6547 11.7176V15.5183C3.6547 16.8519 3.66303 17.7937 3.6797 18.3438C3.69638 18.8939 3.73806 19.2439 3.80475 19.394C3.87144 19.544 3.96314 19.619 4.07984 19.619C4.19655 19.619 4.30492 19.569 4.40496 19.469L4.60502 19.269V13.0679L4.90513 12.8678C5.1052 12.7345 5.3136 12.6928 5.53034 12.7428C5.74709 12.7928 5.90547 12.9345 6.00551 13.1679C6.10554 13.4013 6.15556 15.935 6.15556 20.7692V25.12C6.15556 26.1868 6.17223 26.9369 6.20558 27.3704C6.23892 27.8038 6.28894 28.0871 6.35563 28.2205C6.42232 28.3539 6.52236 28.4705 6.65573 28.5706H6.70575C6.87248 28.6706 7.01419 28.7206 7.1309 28.7206C7.24761 28.7206 7.40599 28.6706 7.60606 28.5706ZM47.5699 28.5706C47.77 28.4705 47.9117 28.3122 47.995 28.0955C48.0784 27.8788 48.1201 27.487 48.1201 26.9203C48.1534 26.3869 48.1701 25.4534 48.1701 24.1198C48.1701 21.7194 48.2118 20.4525 48.2951 20.3191C48.3785 20.1858 48.5536 20.1191 48.8203 20.1191C49.0871 20.1191 49.2871 20.1858 49.4205 20.3191L49.6206 20.4692V24.0698C49.6206 26.3368 49.754 27.7954 50.0207 28.4455C50.2875 29.0957 50.7543 29.0707 51.4212 28.3705L51.6713 28.0705V20.7692C51.6713 15.935 51.7213 13.4013 51.8214 13.1679C51.9214 12.9345 52.0798 12.7928 52.2965 12.7428C52.5133 12.6928 52.7217 12.7345 52.9217 12.8678L53.2218 13.0679V19.269L53.4219 19.469C53.5219 19.569 53.6387 19.619 53.772 19.619C53.9054 19.619 53.9971 19.544 54.0471 19.394C54.0971 19.2439 54.1388 18.8689 54.1722 18.2688V11.7176L53.722 11.2176L53.2218 10.7675H50.4709L50.721 12.8178L50.821 14.1181L50.1708 15.4183C49.804 16.0851 49.5039 16.5185 49.2705 16.7185C49.0371 16.9185 48.8036 16.9185 48.5702 16.7185C48.3368 16.5185 48.0367 16.0851 47.6699 15.4183L46.9697 14.1181L47.1197 12.8678C47.1864 12.0344 47.2531 11.4676 47.3198 11.1676L47.3698 10.7675H44.5688L43.6185 11.7176V15.5183C43.6185 17.0186 43.6352 18.0187 43.6685 18.5188C43.7019 19.1189 43.7602 19.4773 43.8436 19.594C43.927 19.7107 44.102 19.6857 44.3688 19.519L44.5188 19.419L44.6189 16.2184L44.6689 13.0179L45.3191 12.6178L45.6192 12.8178C45.7526 12.8845 45.8526 12.9845 45.9193 13.1179C45.986 13.2512 46.036 13.543 46.0694 13.993C46.1027 14.4431 46.1194 15.2183 46.1194 16.3184V20.8192L46.1694 26.6202C46.2027 27.4204 46.2444 27.9205 46.2944 28.1205C46.3445 28.3205 46.4528 28.4705 46.6196 28.5706H46.6696C46.8363 28.6706 46.978 28.7206 47.0947 28.7206C47.2114 28.7206 47.3698 28.6706 47.5699 28.5706ZM27.8131 25.9201C26.9127 25.5867 26.2625 25.0366 25.8624 24.2698C25.4622 23.5697 25.3289 22.8112 25.4622 21.9944C25.5956 21.1776 25.9707 20.4942 26.5876 19.9441C27.2045 19.394 27.9798 19.1189 28.9134 19.1189C29.7804 19.1189 30.514 19.369 31.1142 19.8691C31.7144 20.3691 32.1062 20.9859 32.2896 21.7194C32.473 22.4528 32.4313 23.1863 32.1646 23.9198C31.8978 24.6532 31.381 25.2367 30.614 25.6701C30.2139 25.8701 29.7387 25.9951 29.1885 26.0451C28.6383 26.0951 28.1798 26.0535 27.8131 25.9201ZM29.7137 24.3698C30.3473 24.0364 30.7224 23.5447 30.8391 22.8946C30.9558 22.2445 30.7641 21.6694 30.2639 21.1693C29.8304 20.7359 29.3219 20.5608 28.7384 20.6442C28.1548 20.7275 27.6797 20.9943 27.3129 21.4443C26.9461 21.8944 26.8461 22.4195 27.0128 23.0196C27.1795 23.6197 27.5463 24.0615 28.1132 24.3448C28.68 24.6282 29.2135 24.6366 29.7137 24.3698ZM8.30631 8.61711C7.37265 8.48376 6.63906 8.04201 6.10554 7.29188C5.57203 6.54175 5.34695 5.70827 5.43031 4.79145C5.51367 3.87463 5.92215 3.09949 6.65573 2.46605C7.28929 1.93262 8.04788 1.66591 8.93152 1.66591C9.81516 1.66591 10.5738 1.94096 11.2073 2.49105C11.8409 3.04115 12.2327 3.69126 12.3827 4.44139C12.5328 5.19152 12.4411 5.91665 12.1076 6.61677C11.7742 7.31689 11.274 7.85865 10.6071 8.24205C9.9402 8.62545 9.17327 8.75047 8.30631 8.61711ZM9.90686 6.86681C10.3403 6.63343 10.6321 6.29171 10.7822 5.84163C10.9322 5.39156 10.9239 4.93314 10.7572 4.46639C10.5904 3.99965 10.2987 3.65792 9.88185 3.44122C9.46504 3.22451 9.00655 3.16617 8.50637 3.26619C8.0062 3.3662 7.62274 3.58291 7.35598 3.9163C6.95584 4.44973 6.83913 5.01649 7.00586 5.61659C7.17258 6.2167 7.53937 6.65844 8.10624 6.94182C8.6731 7.2252 9.27331 7.2002 9.90686 6.86681ZM48.3201 8.61711C47.3865 8.48376 46.6529 8.04201 46.1194 7.29188C45.5859 6.54175 45.3608 5.70827 45.4441 4.79145C45.5275 3.87463 45.936 3.09949 46.6696 2.46605C47.2031 1.9993 47.8116 1.73259 48.4952 1.66591C49.1788 1.59923 49.8373 1.72425 50.4709 2.04097C51.1044 2.3577 51.6046 2.83278 51.9714 3.46622L52.3215 4.01632V6.2667L51.9714 6.8168C51.6046 7.48358 51.0878 7.98367 50.4209 8.31706C49.754 8.65045 49.0537 8.75047 48.3201 8.61711ZM49.5206 7.01683C50.1875 6.78346 50.6043 6.35839 50.771 5.74162C50.9377 5.12484 50.846 4.54974 50.4959 4.01632C50.1458 3.48289 49.6206 3.21618 48.9204 3.21618C48.2201 3.21618 47.6866 3.48289 47.3198 4.01632C46.953 4.54974 46.853 5.12484 47.0197 5.74162C47.1864 6.35839 47.6032 6.78346 48.2701 7.01683C48.5369 7.11685 48.7453 7.16686 48.8953 7.16686C49.0454 7.16686 49.2538 7.11685 49.5206 7.01683Z"
			fill="#F17425" />
	</g>
	<defs>
		<clipPath id="clip0_363_306">
			<rect width="57.82" height="51" fill="white" transform="matrix(1 0 0 -1 0.0898438 51.22)" />
		</clipPath>
	</defs>
</svg>
