<svg width="25" height="29" viewBox="0 0 25 29" fill="none" xmlns="http://www.w3.org/2000/svg">
	<g clip-path="url(#clip0_363_957)">
		<path
			d="M20.5838 19.4932C20.5838 19.3812 20.5745 19.2972 20.5558 19.2412C20.5371 19.1852 20.4438 19.1012 20.2758 18.9892L19.6598 18.5972C19.4171 18.4478 19.1651 18.3078 18.9038 18.1772C18.6425 18.0465 18.4091 17.9158 18.2038 17.7852C17.9985 17.6545 17.8491 17.5705 17.7558 17.5332C17.6998 17.5145 17.5971 17.4492 17.4478 17.3372C17.2985 17.2252 17.1678 17.1505 17.0558 17.1132C16.9438 17.0758 16.8411 17.0478 16.7478 17.0292C16.5798 17.0292 16.3838 17.1412 16.1598 17.3652C15.9358 17.5892 15.7305 17.8225 15.5438 18.0652C15.3571 18.3078 15.1611 18.5412 14.9558 18.7652C14.7505 18.9892 14.5731 19.0918 14.4238 19.0732C14.3491 19.0732 14.2651 19.0545 14.1718 19.0172C14.0785 18.9798 13.9945 18.9518 13.9198 18.9332C13.8451 18.9145 13.7611 18.8585 13.6678 18.7652C13.5745 18.6718 13.4998 18.6345 13.4438 18.6532C12.4171 18.0745 11.5305 17.4118 10.7838 16.6652C10.0371 15.9185 9.37446 15.0318 8.7958 14.0052L8.6558 13.7812C8.58113 13.6692 8.53446 13.5852 8.5158 13.5292C8.49713 13.4732 8.4598 13.3892 8.4038 13.2772C8.3478 13.1652 8.32913 13.0812 8.3478 13.0252C8.3478 12.8758 8.4598 12.6985 8.6838 12.4932C8.9078 12.2878 9.14113 12.0825 9.3838 11.8772C9.62646 11.6718 9.8598 11.4665 10.0838 11.2612C10.3078 11.0558 10.4105 10.8692 10.3918 10.7012C10.3918 10.5892 10.3731 10.4772 10.3358 10.3652C10.2985 10.2532 10.2145 10.1225 10.0838 9.97318C9.95313 9.82384 9.8878 9.73051 9.8878 9.69318L9.6638 9.24518C9.5518 9.02118 9.42113 8.78784 9.2718 8.54518C9.12246 8.30251 8.98246 8.05051 8.8518 7.78918C8.72113 7.52784 8.59046 7.31318 8.4598 7.14518C8.32913 6.97718 8.24513 6.88384 8.2078 6.86518C8.17046 6.84651 8.08646 6.83718 7.9558 6.83718C7.4518 6.83718 6.92913 6.95851 6.3878 7.20118C5.90246 7.40651 5.48246 7.89184 5.1278 8.65718C4.77313 9.42251 4.5958 10.1038 4.5958 10.7012C4.5958 10.8692 4.60513 11.0465 4.6238 11.2332C4.64246 11.4198 4.67046 11.5785 4.7078 11.7092L4.8478 12.2132C4.9038 12.4185 4.9598 12.5772 5.0158 12.6892C5.0718 12.8012 5.13713 12.9692 5.2118 13.1932L5.3798 13.6692C5.9958 15.3865 7.12513 17.0572 8.7678 18.6812C10.4105 20.3052 12.0718 21.4345 13.7518 22.0692C13.8265 22.0878 13.9851 22.1438 14.2278 22.2372L14.7598 22.4332L15.2078 22.5732C15.3945 22.6292 15.5718 22.6758 15.7398 22.7132C15.9078 22.7505 16.0665 22.7785 16.2158 22.7972L16.7478 22.8532C17.3265 22.8532 17.9985 22.6758 18.7638 22.3212C19.5291 21.9665 20.0238 21.5465 20.2478 21.0612C20.4718 20.5012 20.5838 19.9785 20.5838 19.4932ZM24.5878 7.34118V22.3492C24.5878 23.5812 24.1491 24.6358 23.2718 25.5132C22.3945 26.3905 21.3305 26.8385 20.0798 26.8572H5.0998C3.84913 26.8572 2.78513 26.4092 1.9078 25.5132C1.03046 24.6172 0.591797 23.5625 0.591797 22.3492V7.34118C0.591797 6.10918 1.03046 5.05451 1.9078 4.17718C2.78513 3.29984 3.84913 2.85184 5.0998 2.83318H20.0798C21.3305 2.83318 22.3945 3.28118 23.2718 4.17718C24.1491 5.07318 24.5878 6.12784 24.5878 7.34118Z"
			fill="currentColor" />
	</g>
	<defs>
		<clipPath id="clip0_363_957">
			<rect width="24" height="28" fill="white" transform="matrix(1 0 0 -1 0.589844 28.0884)" />
		</clipPath>
	</defs>
</svg>
