<svg width="46" height="52" viewBox="0 0 46 52" fill="none" xmlns="http://www.w3.org/2000/svg">
	<g clip-path="url(#clip0_363_252)">
		<path
			d="M2.05 50.4698C1.41667 50.2032 0.916667 49.7948 0.55 49.2448C0.183333 48.6948 0 48.0698 0 47.3698V46.5698L0.3 45.9698C0.533333 45.4698 0.858333 45.0448 1.275 44.6948C1.69167 44.3448 2.10833 44.1532 2.525 44.1198C2.94167 44.0865 3.24167 44.2282 3.425 44.5448C3.60833 44.8615 3.65833 45.1615 3.575 45.4448C3.49167 45.7282 3.28333 45.9532 2.95 46.1198C2.55 46.3532 2.28333 46.6532 2.15 47.0198C2.01667 47.3865 2.06667 47.7365 2.3 48.0698C2.43333 48.3032 2.6 48.4532 2.8 48.5198C3 48.5865 3.46667 48.6365 4.2 48.6698C4.73333 48.6698 5.98333 48.6698 7.95 48.6698H12.7L13.05 48.5198C13.55 48.2532 13.7917 47.8698 13.775 47.3698C13.7583 46.8698 13.5 46.4698 13 46.1698C12.5667 45.9365 12.3167 45.6282 12.25 45.2448C12.1833 44.8615 12.2917 44.5532 12.575 44.3198C12.8583 44.0865 13.2167 44.0365 13.65 44.1698C14.55 44.4698 15.175 45.0448 15.525 45.8948C15.875 46.7448 15.9167 47.6115 15.65 48.4948C15.3833 49.3782 14.8167 50.0198 13.95 50.4198L13.4 50.6698L8 50.7198H2.65L2.05 50.4698ZM7.25 46.2198C6.91667 46.1532 6.40833 45.5698 5.725 44.4698C5.04167 43.3698 4.38333 42.1198 3.75 40.7198C3.08333 39.2532 2.63333 38.0198 2.4 37.0198C2.06667 35.7532 2.18333 34.5532 2.75 33.4198C3.28333 32.3532 4.09167 31.5282 5.175 30.9448C6.25833 30.3615 7.4 30.1365 8.6 30.2698C9.9 30.4032 11.0167 30.9365 11.95 31.8698C12.7833 32.7032 13.3083 33.5532 13.525 34.4198C13.7417 35.2865 13.65 36.3698 13.25 37.6698C12.85 38.9365 12.1 40.6865 11 42.9198C10.4333 44.0532 9.975 44.8698 9.625 45.3698C9.275 45.8698 8.93333 46.1698 8.6 46.2698C8.26667 46.3698 7.81667 46.3532 7.25 46.2198ZM9.35 41.4698C10.15 39.8365 10.7 38.6365 11 37.8698C11.3333 37.0032 11.5083 36.3198 11.525 35.8198C11.5417 35.3198 11.4167 34.8198 11.15 34.3198C10.7167 33.4532 10.0667 32.8615 9.2 32.5448C8.33333 32.2282 7.46667 32.2365 6.6 32.5698C5.73333 32.9032 5.08333 33.5198 4.65 34.4198L4.4 34.9698V36.7198L4.9 37.9698C5.53333 39.4032 6.11667 40.6532 6.65 41.7198L7.9 44.2198L8.05 44.0198L9.35 41.4698ZM16.4 41.1198C16.1667 41.0198 16 40.8532 15.9 40.6198L15.75 40.2698L15.85 39.8698C15.9167 39.6365 16.05 39.4532 16.25 39.3198L16.5 39.1698L27.5 39.1198C34.8 39.0865 38.5833 39.0198 38.85 38.9198C40.2833 38.4532 41.4 37.6698 42.2 36.5698C42.9333 35.5365 43.3083 34.3782 43.325 33.0948C43.3417 31.8115 43 30.6365 42.3 29.5698C41.5333 28.4365 40.45 27.6032 39.05 27.0698L38.5 26.8198L7.05 26.7198L6.3 26.5198C4.23333 25.9532 2.63333 24.8532 1.5 23.2198C0.466667 21.7198 -0.0166667 20.0198 0.05 18.1198C0.116667 16.2198 0.716667 14.5698 1.85 13.1698C3.08333 11.6365 4.75 10.6865 6.85 10.3198L7.7 10.1698H28.65L29 10.3198C29.2 10.3865 29.3667 10.5532 29.5 10.8198L29.65 11.1698L29.55 11.5198C29.4833 11.7865 29.3667 11.9865 29.2 12.1198L28.9 12.2698L17.9 12.3198C10.6 12.3532 6.81667 12.4198 6.55 12.5198C5.15 12.9865 4.05 13.7698 3.25 14.8698C2.51667 15.9032 2.13333 17.0615 2.1 18.3448C2.06667 19.6282 2.41667 20.8032 3.15 21.8698C3.88333 23.0032 4.95 23.8365 6.35 24.3698L6.95 24.6198L38.4 24.7198L39.1 24.9198C41.1667 25.4865 42.7667 26.5865 43.9 28.2198C44.9667 29.7198 45.4667 31.4198 45.4 33.3198C45.3333 35.2198 44.7167 36.8698 43.55 38.2698C42.3167 39.8032 40.65 40.7532 38.55 41.1198L37.7 41.2698L27.2 41.2198H16.7L16.4 41.1198ZM28.7 21.0698C28 20.8365 27.4417 20.4365 27.025 19.8698C26.6083 19.3032 26.3833 18.6365 26.35 17.8698V17.0698L26.65 16.4698C26.8833 15.9698 27.2 15.5532 27.6 15.2198C28 14.8865 28.4083 14.6948 28.825 14.6448C29.2417 14.5948 29.5667 14.7032 29.8 14.9698C30.0333 15.2365 30.1 15.5282 30 15.8448C29.9 16.1615 29.65 16.4365 29.25 16.6698C28.7833 16.9365 28.525 17.3115 28.475 17.7948C28.425 18.2782 28.6167 18.6532 29.05 18.9198L29.3 19.1198L34.2 19.1698H39.05L39.4 19.0198C39.8667 18.7865 40.1167 18.4198 40.15 17.9198C40.1833 17.4198 39.9833 17.0448 39.55 16.7948C39.1167 16.5448 38.8333 16.3115 38.7 16.0948C38.5667 15.8782 38.55 15.6198 38.65 15.3198C38.75 14.8865 39.0083 14.6532 39.425 14.6198C39.8417 14.5865 40.2917 14.7365 40.775 15.0698C41.2583 15.4032 41.6333 15.8365 41.9 16.3698L42.2 16.8698V18.7198L41.95 19.2698C41.7833 19.6032 41.55 19.9198 41.25 20.2198C40.95 20.5198 40.6333 20.7532 40.3 20.9198L39.75 21.1698L34.45 21.2198C30.9167 21.2198 29 21.1698 28.7 21.0698ZM31.8 16.3698C31.5667 16.1365 31.4583 15.8782 31.475 15.5948C31.4917 15.3115 31.6167 15.0698 31.85 14.8698C32.0833 14.6698 32.3833 14.5698 32.75 14.5698H33.25V3.21985C33.2833 2.25318 33.3333 1.63651 33.4 1.36985C33.4333 1.16985 33.5333 1.00318 33.7 0.869846L33.9 0.719849H44.85L45.1 0.969849C45.2333 1.10318 45.325 1.26151 45.375 1.44485C45.425 1.62818 45.4583 2.01151 45.475 2.59485C45.4917 3.17818 45.4833 4.18652 45.45 5.61985L45.4 9.41985L44.8 10.0198H35.3V14.5698L35.95 14.6198C36.5167 14.6532 36.8917 14.8698 37.075 15.2698C37.2583 15.6698 37.15 16.0532 36.75 16.4198L36.55 16.6198H32.05L31.8 16.3698ZM43.3 5.36985V2.76985H35.3V7.91985H43.3V5.36985Z"
			fill="#F17425" />
	</g>
	<defs>
		<clipPath id="clip0_363_252">
			<rect width="45.45" height="51" fill="white" transform="matrix(1 0 0 -1 0.27002 51.2198)" />
		</clipPath>
	</defs>
</svg>
